G04*
G04 #@! TF.GenerationSoftware,Altium Limited,Altium Designer,20.1.8 (145)*
G04*
G04 Layer_Physical_Order=1*
G04 Layer_Color=255*
%FSLAX25Y25*%
%MOIN*%
G70*
G04*
G04 #@! TF.SameCoordinates,412804ED-27A4-4B33-A170-4839FA9A990F*
G04*
G04*
G04 #@! TF.FilePolarity,Positive*
G04*
G01*
G75*
%ADD10R,0.03740X0.01968*%
G04:AMPARAMS|DCode=11|XSize=19.68mil|YSize=37.4mil|CornerRadius=4.92mil|HoleSize=0mil|Usage=FLASHONLY|Rotation=270.000|XOffset=0mil|YOffset=0mil|HoleType=Round|Shape=RoundedRectangle|*
%AMROUNDEDRECTD11*
21,1,0.01968,0.02756,0,0,270.0*
21,1,0.00984,0.03740,0,0,270.0*
1,1,0.00984,-0.01378,-0.00492*
1,1,0.00984,-0.01378,0.00492*
1,1,0.00984,0.01378,0.00492*
1,1,0.00984,0.01378,-0.00492*
%
%ADD11ROUNDEDRECTD11*%
G04:AMPARAMS|DCode=12|XSize=31.5mil|YSize=31.5mil|CornerRadius=7.87mil|HoleSize=0mil|Usage=FLASHONLY|Rotation=0.000|XOffset=0mil|YOffset=0mil|HoleType=Round|Shape=RoundedRectangle|*
%AMROUNDEDRECTD12*
21,1,0.03150,0.01575,0,0,0.0*
21,1,0.01575,0.03150,0,0,0.0*
1,1,0.01575,0.00787,-0.00787*
1,1,0.01575,-0.00787,-0.00787*
1,1,0.01575,-0.00787,0.00787*
1,1,0.01575,0.00787,0.00787*
%
%ADD12ROUNDEDRECTD12*%
%ADD13R,0.03150X0.03150*%
%ADD14C,0.01000*%
%ADD15C,0.01181*%
%ADD16R,0.03543X0.01968*%
%ADD17C,0.00122*%
%ADD18C,0.11811*%
%ADD19C,0.05906*%
%ADD20R,0.05906X0.05906*%
%ADD21C,0.02362*%
%ADD22R,0.05906X0.05906*%
D10*
X54894Y15114D02*
D03*
Y20232D02*
D03*
X35996Y20126D02*
D03*
Y15008D02*
D03*
X45445Y15008D02*
D03*
Y20126D02*
D03*
X127728Y15114D02*
D03*
Y20232D02*
D03*
X108831Y20126D02*
D03*
Y15008D02*
D03*
X118280Y15008D02*
D03*
Y20126D02*
D03*
X200563Y15114D02*
D03*
Y20232D02*
D03*
X181665Y20126D02*
D03*
Y15008D02*
D03*
X191114Y15008D02*
D03*
Y20126D02*
D03*
X273398Y15114D02*
D03*
Y20232D02*
D03*
X254500Y20126D02*
D03*
Y15008D02*
D03*
X263949Y15008D02*
D03*
Y20126D02*
D03*
X260067Y87933D02*
D03*
Y93051D02*
D03*
X190945Y87933D02*
D03*
Y93051D02*
D03*
X121823Y87933D02*
D03*
Y93051D02*
D03*
X52701Y87933D02*
D03*
Y93051D02*
D03*
D11*
X61193Y32651D02*
D03*
Y27533D02*
D03*
X134028Y32651D02*
D03*
Y27533D02*
D03*
X206862Y32651D02*
D03*
Y27533D02*
D03*
X279697Y32651D02*
D03*
Y27533D02*
D03*
D12*
X35602Y42764D02*
D03*
X108437D02*
D03*
X181272D02*
D03*
X254106D02*
D03*
D13*
X41508D02*
D03*
X114342D02*
D03*
X187177D02*
D03*
X260012D02*
D03*
D14*
X13555Y50350D02*
X20724D01*
X28310Y42764D01*
X61193Y22791D02*
Y27533D01*
X58634Y20232D02*
X61193Y22791D01*
X54894Y20232D02*
X58634D01*
X86390Y50350D02*
X93559D01*
X101145Y42764D01*
X134028Y22791D02*
Y27533D01*
X131468Y20232D02*
X134028Y22791D01*
X127728Y20232D02*
X131468D01*
X159224Y50350D02*
X166393D01*
X173980Y42764D01*
X206862Y22791D02*
Y27533D01*
X204303Y20232D02*
X206862Y22791D01*
X200563Y20232D02*
X204303D01*
X232059Y50350D02*
X239228D01*
X246814Y42764D01*
X279697Y22791D02*
Y27533D01*
X277138Y20232D02*
X279697Y22791D01*
X273398Y20232D02*
X277138D01*
X245815Y75492D02*
Y76740D01*
X258567Y82492D02*
X251567D01*
X245815Y76740D02*
X251567Y82492D01*
X239839Y86492D02*
X237567D01*
X230434Y79359D02*
X237567Y86492D01*
X230067Y75492D02*
X230434Y75859D01*
Y79359D01*
X239839Y86492D02*
X241280Y87933D01*
X244839Y82492D02*
X240567D01*
X249795Y87449D02*
Y87449D01*
X244839Y82492D02*
X249795Y87449D01*
X251067Y87933D02*
X250279D01*
X249795Y87449D02*
X250279Y87933D01*
X255067Y101992D02*
X248067D01*
X260067Y96992D02*
X255067Y101992D01*
X260067Y93051D02*
Y96992D01*
X242008Y92992D02*
X242067Y93051D01*
X242008Y92992D02*
X238067D01*
X260067Y83992D02*
Y87933D01*
X258567Y82492D02*
X260067Y83992D01*
X237941Y75492D02*
X238020Y75571D01*
Y79945D01*
X240567Y82492D01*
X242067Y87933D02*
X241280D01*
X255067Y90492D02*
Y91992D01*
X254008Y93051D01*
X251067D01*
X176693Y75492D02*
Y76740D01*
X189445Y82492D02*
X182445D01*
X176693Y76740D02*
X182445Y82492D01*
X170717Y86492D02*
X168445D01*
X161312Y79359D02*
X168445Y86492D01*
X160945Y75492D02*
X161312Y75859D01*
Y79359D01*
X170717Y86492D02*
X172157Y87933D01*
X175716Y82492D02*
X171445D01*
X180673Y87449D02*
Y87449D01*
X175716Y82492D02*
X180673Y87449D01*
X181945Y87933D02*
X181157D01*
X180673Y87449D02*
X181157Y87933D01*
X185945Y101992D02*
X178945D01*
X190945Y96992D02*
X185945Y101992D01*
X190945Y93051D02*
Y96992D01*
X172886Y92992D02*
X172945Y93051D01*
X172886Y92992D02*
X168945D01*
X190945Y83992D02*
Y87933D01*
X189445Y82492D02*
X190945Y83992D01*
X168819Y75492D02*
X168898Y75571D01*
Y79945D01*
X171445Y82492D01*
X172945Y87933D02*
X172157D01*
X185945Y90492D02*
Y91992D01*
X184886Y93051D01*
X181945D01*
X107571Y75492D02*
Y76740D01*
X120323Y82492D02*
X113323D01*
X107571Y76740D02*
X113323Y82492D01*
X101594Y86492D02*
X99323D01*
X92190Y79359D02*
X99323Y86492D01*
X91823Y75492D02*
X92190Y75859D01*
Y79359D01*
X101594Y86492D02*
X103035Y87933D01*
X106595Y82492D02*
X102323D01*
X111551Y87449D02*
Y87449D01*
X106595Y82492D02*
X111551Y87449D01*
X112823Y87933D02*
X112035D01*
X111551Y87449D02*
X112035Y87933D01*
X116823Y101992D02*
X109823D01*
X121823Y96992D02*
X116823Y101992D01*
X121823Y93051D02*
Y96992D01*
X103764Y92992D02*
X103823Y93051D01*
X103764Y92992D02*
X99823D01*
X121823Y83992D02*
Y87933D01*
X120323Y82492D02*
X121823Y83992D01*
X99697Y75492D02*
X99776Y75571D01*
Y79945D01*
X102323Y82492D01*
X103823Y87933D02*
X103035D01*
X116823Y90492D02*
Y91992D01*
X115764Y93051D01*
X112823D01*
X38449Y75492D02*
Y76740D01*
X51201Y82492D02*
X44201D01*
X38449Y76740D02*
X44201Y82492D01*
X32472Y86492D02*
X30201D01*
X23068Y79359D02*
X30201Y86492D01*
X22701Y75492D02*
X23068Y75859D01*
Y79359D01*
X32472Y86492D02*
X33913Y87933D01*
X37472Y82492D02*
X33201D01*
X42429Y87449D02*
Y87449D01*
X37472Y82492D02*
X42429Y87449D01*
X43701Y87933D02*
X42913D01*
X42429Y87449D02*
X42913Y87933D01*
X47701Y101992D02*
X40701D01*
X52701Y96992D02*
X47701Y101992D01*
X52701Y93051D02*
Y96992D01*
X34642Y92992D02*
X34701Y93051D01*
X34642Y92992D02*
X30701D01*
X52701Y83992D02*
Y87933D01*
X51201Y82492D02*
X52701Y83992D01*
X30575Y75492D02*
X30654Y75571D01*
Y79945D01*
X33201Y82492D01*
X34701Y87933D02*
X33913D01*
X47701Y90492D02*
Y91992D01*
X46642Y93051D01*
X43701D01*
D15*
X13555Y26728D02*
X13678Y26605D01*
X18280D01*
X35996Y15008D02*
X45445D01*
X35996Y15008D02*
X35996Y15008D01*
X55287D02*
X55287Y15008D01*
X45445Y15008D02*
X55287D01*
X41508Y36858D02*
X45445Y32921D01*
Y20126D02*
Y32921D01*
X41508Y36858D02*
Y42764D01*
X29877Y15008D02*
X35996D01*
X18280Y26605D02*
X29877Y15008D01*
X28310Y42764D02*
X34618Y36456D01*
Y31150D02*
Y36456D01*
X28310Y42764D02*
X35602D01*
X52335Y31150D02*
X53613D01*
X55008Y32544D01*
X61193D01*
X49382Y34878D02*
Y44339D01*
Y34878D02*
X52335Y31925D01*
Y31150D02*
Y31925D01*
X46232Y47488D02*
X49382Y44339D01*
X37571Y47488D02*
X46232D01*
X35602Y45520D02*
X37571Y47488D01*
X35602Y42764D02*
Y45520D01*
X35996Y20126D02*
Y23079D01*
X37177Y24260D01*
X38752D01*
X86390Y26728D02*
X86513Y26605D01*
X91114D01*
X108831Y15008D02*
X118280D01*
X108831Y15008D02*
X108831Y15008D01*
X128122D02*
X128122Y15008D01*
X118280Y15008D02*
X128122D01*
X114342Y36858D02*
X118280Y32921D01*
Y20126D02*
Y32921D01*
X114342Y36858D02*
Y42764D01*
X102712Y15008D02*
X108831D01*
X91114Y26605D02*
X102712Y15008D01*
X101145Y42764D02*
X107453Y36456D01*
Y31150D02*
Y36456D01*
X101145Y42764D02*
X108437D01*
X125169Y31150D02*
X126448D01*
X127842Y32544D01*
X134028D01*
X122216Y34878D02*
Y44339D01*
Y34878D02*
X125169Y31925D01*
Y31150D02*
Y31925D01*
X119067Y47488D02*
X122216Y44339D01*
X110406Y47488D02*
X119067D01*
X108437Y45520D02*
X110406Y47488D01*
X108437Y42764D02*
Y45520D01*
X108831Y20126D02*
Y23079D01*
X110012Y24260D01*
X111587D01*
X159224Y26728D02*
X159347Y26605D01*
X163949D01*
X181665Y15008D02*
X191114D01*
X181665Y15008D02*
X181665Y15008D01*
X200957D02*
X200957Y15008D01*
X191114Y15008D02*
X200957D01*
X187177Y36858D02*
X191114Y32921D01*
Y20126D02*
Y32921D01*
X187177Y36858D02*
Y42764D01*
X175546Y15008D02*
X181665D01*
X163949Y26605D02*
X175546Y15008D01*
X173980Y42764D02*
X180287Y36456D01*
Y31150D02*
Y36456D01*
X173980Y42764D02*
X181272D01*
X198004Y31150D02*
X199282D01*
X200677Y32544D01*
X206862D01*
X195051Y34878D02*
Y44339D01*
Y34878D02*
X198004Y31925D01*
Y31150D02*
Y31925D01*
X191902Y47488D02*
X195051Y44339D01*
X183240Y47488D02*
X191902D01*
X181272Y45520D02*
X183240Y47488D01*
X181272Y42764D02*
Y45520D01*
X181665Y20126D02*
Y23079D01*
X182846Y24260D01*
X184421D01*
X232059Y26728D02*
X232182Y26605D01*
X236784D01*
X254500Y15008D02*
X263949D01*
X254500Y15008D02*
X254500Y15008D01*
X273791D02*
X273791Y15008D01*
X263949Y15008D02*
X273791D01*
X260012Y36858D02*
X263949Y32921D01*
Y20126D02*
Y32921D01*
X260012Y36858D02*
Y42764D01*
X248381Y15008D02*
X254500D01*
X236784Y26605D02*
X248381Y15008D01*
X246814Y42764D02*
X253122Y36456D01*
Y31150D02*
Y36456D01*
X246814Y42764D02*
X254106D01*
X270839Y31150D02*
X272117D01*
X273512Y32544D01*
X279697D01*
X267886Y34878D02*
Y44339D01*
Y34878D02*
X270839Y31925D01*
Y31150D02*
Y31925D01*
X264736Y47488D02*
X267886Y44339D01*
X256075Y47488D02*
X264736D01*
X254106Y45520D02*
X256075Y47488D01*
X254106Y42764D02*
Y45520D01*
X254500Y20126D02*
Y23079D01*
X255681Y24260D01*
X257256D01*
D16*
X242067Y93051D02*
D03*
Y87933D02*
D03*
X251067Y93051D02*
D03*
Y87933D02*
D03*
X172945Y93051D02*
D03*
Y87933D02*
D03*
X181945Y93051D02*
D03*
Y87933D02*
D03*
X103823Y93051D02*
D03*
Y87933D02*
D03*
X112823Y93051D02*
D03*
Y87933D02*
D03*
X34701Y93051D02*
D03*
Y87933D02*
D03*
X43701Y93051D02*
D03*
Y87933D02*
D03*
D17*
X215748Y79724D02*
D03*
Y83661D02*
D03*
Y91535D02*
D03*
Y87598D02*
D03*
X218504D02*
D03*
Y91535D02*
D03*
Y83661D02*
D03*
Y79724D02*
D03*
X197244Y80118D02*
D03*
Y84055D02*
D03*
Y91929D02*
D03*
Y87992D02*
D03*
X200000D02*
D03*
Y91929D02*
D03*
Y84055D02*
D03*
Y80118D02*
D03*
X147244Y79724D02*
D03*
Y83661D02*
D03*
Y91535D02*
D03*
Y87598D02*
D03*
X150000D02*
D03*
Y91535D02*
D03*
Y83661D02*
D03*
Y79724D02*
D03*
X128347Y80118D02*
D03*
Y84055D02*
D03*
Y91929D02*
D03*
Y87992D02*
D03*
X131102D02*
D03*
Y91929D02*
D03*
Y84055D02*
D03*
Y80118D02*
D03*
X77953Y79724D02*
D03*
Y83661D02*
D03*
Y91535D02*
D03*
Y87598D02*
D03*
X80709D02*
D03*
Y91535D02*
D03*
Y83661D02*
D03*
Y79724D02*
D03*
X61811D02*
D03*
Y83661D02*
D03*
Y91535D02*
D03*
Y87598D02*
D03*
X59055D02*
D03*
Y91535D02*
D03*
Y83661D02*
D03*
Y79724D02*
D03*
X254528Y59842D02*
D03*
X250591D02*
D03*
X242717D02*
D03*
X246654D02*
D03*
Y62598D02*
D03*
X242717D02*
D03*
X250591D02*
D03*
X254528D02*
D03*
X181693Y59842D02*
D03*
X177756D02*
D03*
X169882D02*
D03*
X173819D02*
D03*
Y62598D02*
D03*
X169882D02*
D03*
X177756D02*
D03*
X181693D02*
D03*
X214370Y29528D02*
D03*
Y25591D02*
D03*
Y17717D02*
D03*
Y21654D02*
D03*
X217126D02*
D03*
Y17717D02*
D03*
Y25591D02*
D03*
Y29528D02*
D03*
X109252Y59842D02*
D03*
X105315D02*
D03*
X97441D02*
D03*
X101378D02*
D03*
Y62598D02*
D03*
X97441D02*
D03*
X105315D02*
D03*
X109252D02*
D03*
X141929Y29528D02*
D03*
Y25591D02*
D03*
Y17717D02*
D03*
Y21654D02*
D03*
X144685D02*
D03*
Y17717D02*
D03*
Y25591D02*
D03*
Y29528D02*
D03*
X36811Y59842D02*
D03*
X32874D02*
D03*
X25000D02*
D03*
X28937D02*
D03*
Y62598D02*
D03*
X25000D02*
D03*
X32874D02*
D03*
X36811D02*
D03*
X69488Y29528D02*
D03*
Y25591D02*
D03*
Y17717D02*
D03*
Y21654D02*
D03*
X72244D02*
D03*
Y17717D02*
D03*
Y25591D02*
D03*
Y29528D02*
D03*
D18*
X59618Y44339D02*
D03*
X14343Y8118D02*
D03*
X132453Y44339D02*
D03*
X87177Y8118D02*
D03*
X205287Y44339D02*
D03*
X160012Y8118D02*
D03*
X278122Y44339D02*
D03*
X232846Y8118D02*
D03*
X228567Y93992D02*
D03*
X159445D02*
D03*
X90323D02*
D03*
X21201D02*
D03*
D19*
X13555Y26728D02*
D03*
Y42476D02*
D03*
Y34602D02*
D03*
X34618Y5559D02*
D03*
X52335D02*
D03*
Y31150D02*
D03*
X86390Y26728D02*
D03*
Y42476D02*
D03*
Y34602D02*
D03*
X107453Y5559D02*
D03*
X125169D02*
D03*
Y31150D02*
D03*
X159224Y26728D02*
D03*
Y42476D02*
D03*
Y34602D02*
D03*
X180287Y5559D02*
D03*
X198004D02*
D03*
Y31150D02*
D03*
X232059Y26728D02*
D03*
Y42476D02*
D03*
Y34602D02*
D03*
X253122Y5559D02*
D03*
X270839D02*
D03*
Y31150D02*
D03*
X253689Y75492D02*
D03*
X237941D02*
D03*
X245815D02*
D03*
X184567D02*
D03*
X168819D02*
D03*
X176693D02*
D03*
X115445D02*
D03*
X99697D02*
D03*
X107571D02*
D03*
X46323D02*
D03*
X30575D02*
D03*
X38449D02*
D03*
D20*
X13555Y50350D02*
D03*
X34618Y31150D02*
D03*
X86390Y50350D02*
D03*
X107453Y31150D02*
D03*
X159224Y50350D02*
D03*
X180287Y31150D02*
D03*
X232059Y50350D02*
D03*
X253122Y31150D02*
D03*
D21*
X38752Y24260D02*
D03*
X111587D02*
D03*
X184421D02*
D03*
X257256D02*
D03*
X248067Y101992D02*
D03*
X238067Y92992D02*
D03*
X255067Y90492D02*
D03*
X178945Y101992D02*
D03*
X168945Y92992D02*
D03*
X185945Y90492D02*
D03*
X109823Y101992D02*
D03*
X99823Y92992D02*
D03*
X116823Y90492D02*
D03*
X40701Y101992D02*
D03*
X30701Y92992D02*
D03*
X47701Y90492D02*
D03*
D22*
X230067Y75492D02*
D03*
X160945D02*
D03*
X91823D02*
D03*
X22701D02*
D03*
M02*
