G04*
G04 #@! TF.GenerationSoftware,Altium Limited,Altium Designer,20.1.8 (145)*
G04*
G04 Layer_Physical_Order=2*
G04 Layer_Color=16711680*
%FSLAX25Y25*%
%MOIN*%
G70*
G04*
G04 #@! TF.SameCoordinates,412804ED-27A4-4B33-A170-4839FA9A990F*
G04*
G04*
G04 #@! TF.FilePolarity,Positive*
G04*
G01*
G75*
G04:AMPARAMS|DCode=12|XSize=31.5mil|YSize=31.5mil|CornerRadius=7.87mil|HoleSize=0mil|Usage=FLASHONLY|Rotation=0.000|XOffset=0mil|YOffset=0mil|HoleType=Round|Shape=RoundedRectangle|*
%AMROUNDEDRECTD12*
21,1,0.03150,0.01575,0,0,0.0*
21,1,0.01575,0.03150,0,0,0.0*
1,1,0.01575,0.00787,-0.00787*
1,1,0.01575,-0.00787,-0.00787*
1,1,0.01575,-0.00787,0.00787*
1,1,0.01575,0.00787,0.00787*
%
%ADD12ROUNDEDRECTD12*%
%ADD13R,0.03150X0.03150*%
%ADD14C,0.01000*%
%ADD15C,0.01181*%
%ADD17C,0.00122*%
%ADD18C,0.11811*%
%ADD19C,0.05906*%
%ADD20R,0.05906X0.05906*%
%ADD21C,0.02362*%
%ADD22R,0.05906X0.05906*%
%ADD23R,0.03150X0.03347*%
G04:AMPARAMS|DCode=24|XSize=33.47mil|YSize=31.5mil|CornerRadius=7.87mil|HoleSize=0mil|Usage=FLASHONLY|Rotation=270.000|XOffset=0mil|YOffset=0mil|HoleType=Round|Shape=RoundedRectangle|*
%AMROUNDEDRECTD24*
21,1,0.03347,0.01575,0,0,270.0*
21,1,0.01772,0.03150,0,0,270.0*
1,1,0.01575,-0.00787,-0.00886*
1,1,0.01575,-0.00787,0.00886*
1,1,0.01575,0.00787,0.00886*
1,1,0.01575,0.00787,-0.00886*
%
%ADD24ROUNDEDRECTD24*%
G36*
X277728Y51239D02*
X276768Y51144D01*
X275467Y50749D01*
X274267Y50108D01*
X273216Y49245D01*
X272353Y48194D01*
X271711Y46994D01*
X271317Y45692D01*
X271183Y44339D01*
X271317Y42985D01*
X271711Y41683D01*
X272353Y40483D01*
X273216Y39432D01*
X274267Y38569D01*
X275467Y37928D01*
X276768Y37533D01*
X277728Y37438D01*
Y7724D01*
X274159D01*
X273658Y8378D01*
X272832Y9012D01*
X271870Y9410D01*
X270839Y9546D01*
X269807Y9410D01*
X268845Y9012D01*
X268020Y8378D01*
X267518Y7724D01*
X256443D01*
X255941Y8378D01*
X255116Y9012D01*
X254154Y9410D01*
X253122Y9546D01*
X252090Y9410D01*
X251626Y9218D01*
X245793Y15051D01*
Y40268D01*
X246760Y41234D01*
X251665D01*
X252030Y40688D01*
X252622Y40293D01*
X253319Y40154D01*
X254894D01*
X255591Y40293D01*
X256182Y40688D01*
X256577Y41279D01*
X256716Y41976D01*
Y43551D01*
X256577Y44249D01*
X256182Y44840D01*
X255591Y45235D01*
X254894Y45374D01*
X253319D01*
X252622Y45235D01*
X252030Y44840D01*
X251665Y44293D01*
X246126D01*
X245541Y44177D01*
X245044Y43845D01*
X243182Y41983D01*
X237331Y36132D01*
X235704D01*
X235512Y36596D01*
X234878Y37422D01*
X234052Y38055D01*
X233537Y38269D01*
Y38810D01*
X234052Y39024D01*
X234878Y39657D01*
X235512Y40483D01*
X235910Y41445D01*
X236046Y42476D01*
X235910Y43508D01*
X235512Y44470D01*
X234878Y45296D01*
X234093Y45898D01*
X234093Y45954D01*
X234428Y46398D01*
X236012D01*
Y49850D01*
X232059D01*
Y50850D01*
X236012D01*
Y54287D01*
X268280Y54287D01*
X277728D01*
Y51239D01*
D02*
G37*
G36*
X204894D02*
X203934Y51144D01*
X202632Y50749D01*
X201432Y50108D01*
X200381Y49245D01*
X199518Y48194D01*
X198877Y46994D01*
X198482Y45692D01*
X198348Y44339D01*
X198482Y42985D01*
X198877Y41683D01*
X199518Y40483D01*
X200381Y39432D01*
X201432Y38569D01*
X202632Y37928D01*
X203934Y37533D01*
X204894Y37438D01*
Y7724D01*
X201325D01*
X200823Y8378D01*
X199997Y9012D01*
X199036Y9410D01*
X198004Y9546D01*
X196972Y9410D01*
X196010Y9012D01*
X195185Y8378D01*
X194683Y7724D01*
X183608D01*
X183107Y8378D01*
X182281Y9012D01*
X181319Y9410D01*
X180287Y9546D01*
X179255Y9410D01*
X178791Y9218D01*
X172959Y15051D01*
Y40268D01*
X173925Y41234D01*
X178830D01*
X179196Y40688D01*
X179787Y40293D01*
X180484Y40154D01*
X182059D01*
X182756Y40293D01*
X183348Y40688D01*
X183743Y41279D01*
X183881Y41976D01*
Y43551D01*
X183743Y44249D01*
X183348Y44840D01*
X182756Y45235D01*
X182059Y45374D01*
X180484D01*
X179787Y45235D01*
X179196Y44840D01*
X178830Y44293D01*
X173291D01*
X172706Y44177D01*
X172210Y43845D01*
X170348Y41983D01*
X164496Y36132D01*
X162869D01*
X162677Y36596D01*
X162044Y37422D01*
X161218Y38055D01*
X160702Y38269D01*
Y38810D01*
X161218Y39024D01*
X162044Y39657D01*
X162677Y40483D01*
X163075Y41445D01*
X163211Y42476D01*
X163075Y43508D01*
X162677Y44470D01*
X162044Y45296D01*
X161259Y45898D01*
X161258Y45954D01*
X161594Y46398D01*
X163177D01*
Y49850D01*
X159224D01*
Y50850D01*
X163177D01*
Y54287D01*
X195445Y54287D01*
X204894D01*
Y51239D01*
D02*
G37*
G36*
X132059D02*
X131099Y51144D01*
X129797Y50749D01*
X128598Y50108D01*
X127546Y49245D01*
X126683Y48194D01*
X126042Y46994D01*
X125647Y45692D01*
X125514Y44339D01*
X125647Y42985D01*
X126042Y41683D01*
X126683Y40483D01*
X127546Y39432D01*
X128598Y38569D01*
X129797Y37928D01*
X131099Y37533D01*
X132059Y37438D01*
Y7724D01*
X128490D01*
X127988Y8378D01*
X127163Y9012D01*
X126201Y9410D01*
X125169Y9546D01*
X124137Y9410D01*
X123176Y9012D01*
X122350Y8378D01*
X121848Y7724D01*
X110774D01*
X110272Y8378D01*
X109446Y9012D01*
X108485Y9410D01*
X107453Y9546D01*
X106421Y9410D01*
X105957Y9218D01*
X100124Y15051D01*
Y40268D01*
X101090Y41234D01*
X105996D01*
X106361Y40688D01*
X106952Y40293D01*
X107650Y40154D01*
X109224D01*
X109922Y40293D01*
X110513Y40688D01*
X110908Y41279D01*
X111047Y41976D01*
Y43551D01*
X110908Y44249D01*
X110513Y44840D01*
X109922Y45235D01*
X109224Y45374D01*
X107650D01*
X106952Y45235D01*
X106361Y44840D01*
X105996Y44293D01*
X100457D01*
X99871Y44177D01*
X99375Y43845D01*
X97513Y41983D01*
X91662Y36132D01*
X90035D01*
X89842Y36596D01*
X89209Y37422D01*
X88383Y38055D01*
X87867Y38269D01*
Y38810D01*
X88383Y39024D01*
X89209Y39657D01*
X89842Y40483D01*
X90241Y41445D01*
X90377Y42476D01*
X90241Y43508D01*
X89842Y44470D01*
X89209Y45296D01*
X88424Y45898D01*
X88424Y45954D01*
X88759Y46398D01*
X90342D01*
Y49850D01*
X86390D01*
Y50850D01*
X90342D01*
Y54287D01*
X122610Y54287D01*
X132059D01*
Y51239D01*
D02*
G37*
G36*
X59224D02*
X58264Y51144D01*
X56963Y50749D01*
X55763Y50108D01*
X54712Y49245D01*
X53849Y48194D01*
X53207Y46994D01*
X52812Y45692D01*
X52679Y44339D01*
X52812Y42985D01*
X53207Y41683D01*
X53849Y40483D01*
X54712Y39432D01*
X55763Y38569D01*
X56963Y37928D01*
X58264Y37533D01*
X59224Y37438D01*
Y7724D01*
X55655D01*
X55154Y8378D01*
X54328Y9012D01*
X53367Y9410D01*
X52335Y9546D01*
X51303Y9410D01*
X50341Y9012D01*
X49516Y8378D01*
X49014Y7724D01*
X37939D01*
X37437Y8378D01*
X36612Y9012D01*
X35650Y9410D01*
X34618Y9546D01*
X33586Y9410D01*
X33122Y9218D01*
X27289Y15051D01*
Y40268D01*
X28256Y41234D01*
X33161D01*
X33526Y40688D01*
X34117Y40293D01*
X34815Y40154D01*
X36390D01*
X37087Y40293D01*
X37678Y40688D01*
X38074Y41279D01*
X38212Y41976D01*
Y43551D01*
X38074Y44249D01*
X37678Y44840D01*
X37087Y45235D01*
X36390Y45374D01*
X34815D01*
X34117Y45235D01*
X33526Y44840D01*
X33161Y44293D01*
X27622D01*
X27037Y44177D01*
X26541Y43845D01*
X24678Y41983D01*
X18827Y36132D01*
X17200D01*
X17008Y36596D01*
X16374Y37422D01*
X15549Y38055D01*
X15033Y38269D01*
Y38810D01*
X15549Y39024D01*
X16374Y39657D01*
X17008Y40483D01*
X17406Y41445D01*
X17542Y42476D01*
X17406Y43508D01*
X17008Y44470D01*
X16374Y45296D01*
X15589Y45898D01*
X15589Y45954D01*
X15924Y46398D01*
X17508D01*
Y49850D01*
X13555D01*
Y50850D01*
X17508D01*
Y54287D01*
X49776Y54287D01*
X59224D01*
Y51239D01*
D02*
G37*
G36*
X242734Y36556D02*
Y14417D01*
X242851Y13832D01*
X243182Y13336D01*
X248332Y8186D01*
X248141Y7724D01*
X240119D01*
X239783Y8095D01*
X239785Y8118D01*
X239652Y9472D01*
X239257Y10774D01*
X238616Y11973D01*
X237753Y13025D01*
X236701Y13888D01*
X235502Y14529D01*
X234200Y14924D01*
X232846Y15057D01*
X231493Y14924D01*
X230191Y14529D01*
X228991Y13888D01*
X228228Y13261D01*
X227728Y13498D01*
Y25604D01*
X228208Y25696D01*
X228606Y24735D01*
X229240Y23909D01*
X230066Y23276D01*
X231027Y22877D01*
X232059Y22741D01*
X233091Y22877D01*
X234052Y23276D01*
X234878Y23909D01*
X235512Y24735D01*
X235910Y25697D01*
X236046Y26728D01*
X235910Y27760D01*
X235512Y28722D01*
X234878Y29548D01*
X234052Y30181D01*
X233537Y30395D01*
Y30936D01*
X234052Y31150D01*
X234878Y31783D01*
X235512Y32609D01*
X235704Y33073D01*
X237965D01*
X238550Y33189D01*
X239046Y33521D01*
X242272Y36747D01*
X242734Y36556D01*
D02*
G37*
G36*
X169900D02*
Y14417D01*
X170016Y13832D01*
X170348Y13336D01*
X175497Y8186D01*
X175306Y7724D01*
X167284D01*
X166948Y8095D01*
X166951Y8118D01*
X166817Y9472D01*
X166423Y10774D01*
X165781Y11973D01*
X164918Y13025D01*
X163867Y13888D01*
X162667Y14529D01*
X161365Y14924D01*
X160012Y15057D01*
X158658Y14924D01*
X157356Y14529D01*
X156157Y13888D01*
X155394Y13261D01*
X154894Y13498D01*
Y25604D01*
X155373Y25696D01*
X155772Y24735D01*
X156405Y23909D01*
X157231Y23276D01*
X158193Y22877D01*
X159224Y22741D01*
X160256Y22877D01*
X161218Y23276D01*
X162044Y23909D01*
X162677Y24735D01*
X163075Y25697D01*
X163211Y26728D01*
X163075Y27760D01*
X162677Y28722D01*
X162044Y29548D01*
X161218Y30181D01*
X160702Y30395D01*
Y30936D01*
X161218Y31150D01*
X162044Y31783D01*
X162677Y32609D01*
X162869Y33073D01*
X165130D01*
X165715Y33189D01*
X166211Y33521D01*
X169438Y36747D01*
X169900Y36556D01*
D02*
G37*
G36*
X97065D02*
Y14417D01*
X97181Y13832D01*
X97513Y13336D01*
X102663Y8186D01*
X102471Y7724D01*
X94450D01*
X94114Y8095D01*
X94116Y8118D01*
X93983Y9472D01*
X93588Y10774D01*
X92947Y11973D01*
X92084Y13025D01*
X91032Y13888D01*
X89833Y14529D01*
X88531Y14924D01*
X87177Y15057D01*
X85824Y14924D01*
X84522Y14529D01*
X83322Y13888D01*
X82559Y13261D01*
X82059Y13498D01*
Y25604D01*
X82539Y25696D01*
X82937Y24735D01*
X83571Y23909D01*
X84396Y23276D01*
X85358Y22877D01*
X86390Y22741D01*
X87422Y22877D01*
X88383Y23276D01*
X89209Y23909D01*
X89842Y24735D01*
X90241Y25697D01*
X90377Y26728D01*
X90241Y27760D01*
X89842Y28722D01*
X89209Y29548D01*
X88383Y30181D01*
X87867Y30395D01*
Y30936D01*
X88383Y31150D01*
X89209Y31783D01*
X89842Y32609D01*
X90035Y33073D01*
X92295D01*
X92880Y33189D01*
X93377Y33521D01*
X96603Y36747D01*
X97065Y36556D01*
D02*
G37*
G36*
X24230D02*
Y14417D01*
X24347Y13832D01*
X24678Y13336D01*
X29828Y8186D01*
X29637Y7724D01*
X21615D01*
X21279Y8095D01*
X21281Y8118D01*
X21148Y9472D01*
X20753Y10774D01*
X20112Y11973D01*
X19249Y13025D01*
X18198Y13888D01*
X16998Y14529D01*
X15696Y14924D01*
X14343Y15057D01*
X12989Y14924D01*
X11687Y14529D01*
X10487Y13888D01*
X9724Y13261D01*
X9224Y13498D01*
Y25604D01*
X9704Y25696D01*
X10102Y24735D01*
X10736Y23909D01*
X11562Y23276D01*
X12523Y22877D01*
X13555Y22741D01*
X14587Y22877D01*
X15549Y23276D01*
X16374Y23909D01*
X17008Y24735D01*
X17406Y25697D01*
X17542Y26728D01*
X17406Y27760D01*
X17008Y28722D01*
X16374Y29548D01*
X15549Y30181D01*
X15033Y30395D01*
Y30936D01*
X15549Y31150D01*
X16374Y31783D01*
X17008Y32609D01*
X17200Y33073D01*
X19461D01*
X20046Y33189D01*
X20542Y33521D01*
X23768Y36747D01*
X24230Y36556D01*
D02*
G37*
%LPC*%
G36*
X271339Y35071D02*
Y31650D01*
X274760D01*
X274690Y32182D01*
X274291Y33143D01*
X273658Y33969D01*
X272832Y34602D01*
X271870Y35001D01*
X271339Y35071D01*
D02*
G37*
G36*
X257075Y35102D02*
X253622D01*
Y31650D01*
X257075D01*
Y35102D01*
D02*
G37*
G36*
X270339Y35071D02*
X269807Y35001D01*
X268845Y34602D01*
X268020Y33969D01*
X267386Y33143D01*
X266988Y32182D01*
X266918Y31650D01*
X270339D01*
Y35071D01*
D02*
G37*
G36*
X252622Y35102D02*
X249169D01*
Y31650D01*
X252622D01*
Y35102D01*
D02*
G37*
G36*
X274760Y30650D02*
X271339D01*
Y27229D01*
X271870Y27299D01*
X272832Y27697D01*
X273658Y28330D01*
X274291Y29156D01*
X274690Y30118D01*
X274760Y30650D01*
D02*
G37*
G36*
X270339D02*
X266918D01*
X266988Y30118D01*
X267386Y29156D01*
X268020Y28330D01*
X268845Y27697D01*
X269807Y27299D01*
X270339Y27229D01*
Y30650D01*
D02*
G37*
G36*
X257075D02*
X253622D01*
Y27197D01*
X257075D01*
Y30650D01*
D02*
G37*
G36*
X252622D02*
X249169D01*
Y27197D01*
X252622D01*
Y30650D01*
D02*
G37*
G36*
X262587Y45339D02*
X257437D01*
Y40189D01*
X258390D01*
Y27687D01*
X257169Y26466D01*
X256405Y26314D01*
X255683Y25832D01*
X255201Y25111D01*
X255032Y24260D01*
X255201Y23409D01*
X255683Y22687D01*
X256405Y22205D01*
X257256Y22036D01*
X258107Y22205D01*
X258828Y22687D01*
X259311Y23409D01*
X259462Y24173D01*
X261158Y25869D01*
X261510Y26395D01*
X261633Y27016D01*
Y40189D01*
X262587D01*
Y45339D01*
D02*
G37*
G36*
X198504Y35071D02*
Y31650D01*
X201925D01*
X201855Y32182D01*
X201457Y33143D01*
X200823Y33969D01*
X199997Y34602D01*
X199036Y35001D01*
X198504Y35071D01*
D02*
G37*
G36*
X184240Y35102D02*
X180787D01*
Y31650D01*
X184240D01*
Y35102D01*
D02*
G37*
G36*
X197504Y35071D02*
X196972Y35001D01*
X196010Y34602D01*
X195185Y33969D01*
X194551Y33143D01*
X194153Y32182D01*
X194083Y31650D01*
X197504D01*
Y35071D01*
D02*
G37*
G36*
X179787Y35102D02*
X176335D01*
Y31650D01*
X179787D01*
Y35102D01*
D02*
G37*
G36*
X201925Y30650D02*
X198504D01*
Y27229D01*
X199036Y27299D01*
X199997Y27697D01*
X200823Y28330D01*
X201457Y29156D01*
X201855Y30118D01*
X201925Y30650D01*
D02*
G37*
G36*
X197504D02*
X194083D01*
X194153Y30118D01*
X194551Y29156D01*
X195185Y28330D01*
X196010Y27697D01*
X196972Y27299D01*
X197504Y27229D01*
Y30650D01*
D02*
G37*
G36*
X184240D02*
X180787D01*
Y27197D01*
X184240D01*
Y30650D01*
D02*
G37*
G36*
X179787D02*
X176335D01*
Y27197D01*
X179787D01*
Y30650D01*
D02*
G37*
G36*
X189752Y45339D02*
X184602D01*
Y40189D01*
X185556D01*
Y27687D01*
X184334Y26466D01*
X183570Y26314D01*
X182849Y25832D01*
X182367Y25111D01*
X182197Y24260D01*
X182367Y23409D01*
X182849Y22687D01*
X183570Y22205D01*
X184421Y22036D01*
X185272Y22205D01*
X185994Y22687D01*
X186476Y23409D01*
X186628Y24173D01*
X188324Y25869D01*
X188675Y26395D01*
X188799Y27016D01*
Y40189D01*
X189752D01*
Y45339D01*
D02*
G37*
G36*
X125669Y35071D02*
Y31650D01*
X129090D01*
X129020Y32182D01*
X128622Y33143D01*
X127988Y33969D01*
X127163Y34602D01*
X126201Y35001D01*
X125669Y35071D01*
D02*
G37*
G36*
X111406Y35102D02*
X107953D01*
Y31650D01*
X111406D01*
Y35102D01*
D02*
G37*
G36*
X124669Y35071D02*
X124137Y35001D01*
X123176Y34602D01*
X122350Y33969D01*
X121717Y33143D01*
X121318Y32182D01*
X121248Y31650D01*
X124669D01*
Y35071D01*
D02*
G37*
G36*
X106953Y35102D02*
X103500D01*
Y31650D01*
X106953D01*
Y35102D01*
D02*
G37*
G36*
X129090Y30650D02*
X125669D01*
Y27229D01*
X126201Y27299D01*
X127163Y27697D01*
X127988Y28330D01*
X128622Y29156D01*
X129020Y30118D01*
X129090Y30650D01*
D02*
G37*
G36*
X124669D02*
X121248D01*
X121318Y30118D01*
X121717Y29156D01*
X122350Y28330D01*
X123176Y27697D01*
X124137Y27299D01*
X124669Y27229D01*
Y30650D01*
D02*
G37*
G36*
X111406D02*
X107953D01*
Y27197D01*
X111406D01*
Y30650D01*
D02*
G37*
G36*
X106953D02*
X103500D01*
Y27197D01*
X106953D01*
Y30650D01*
D02*
G37*
G36*
X116917Y45339D02*
X111768D01*
Y40189D01*
X112721D01*
Y27687D01*
X111500Y26466D01*
X110736Y26314D01*
X110014Y25832D01*
X109532Y25111D01*
X109363Y24260D01*
X109532Y23409D01*
X110014Y22687D01*
X110736Y22205D01*
X111587Y22036D01*
X112438Y22205D01*
X113159Y22687D01*
X113641Y23409D01*
X113793Y24173D01*
X115489Y25869D01*
X115841Y26395D01*
X115964Y27016D01*
Y40189D01*
X116917D01*
Y45339D01*
D02*
G37*
G36*
X52835Y35071D02*
Y31650D01*
X56256D01*
X56186Y32182D01*
X55787Y33143D01*
X55154Y33969D01*
X54328Y34602D01*
X53367Y35001D01*
X52835Y35071D01*
D02*
G37*
G36*
X38571Y35102D02*
X35118D01*
Y31650D01*
X38571D01*
Y35102D01*
D02*
G37*
G36*
X51835Y35071D02*
X51303Y35001D01*
X50341Y34602D01*
X49516Y33969D01*
X48882Y33143D01*
X48484Y32182D01*
X48414Y31650D01*
X51835D01*
Y35071D01*
D02*
G37*
G36*
X34118Y35102D02*
X30665D01*
Y31650D01*
X34118D01*
Y35102D01*
D02*
G37*
G36*
X56256Y30650D02*
X52835D01*
Y27229D01*
X53367Y27299D01*
X54328Y27697D01*
X55154Y28330D01*
X55787Y29156D01*
X56186Y30118D01*
X56256Y30650D01*
D02*
G37*
G36*
X51835D02*
X48414D01*
X48484Y30118D01*
X48882Y29156D01*
X49516Y28330D01*
X50341Y27697D01*
X51303Y27299D01*
X51835Y27229D01*
Y30650D01*
D02*
G37*
G36*
X38571D02*
X35118D01*
Y27197D01*
X38571D01*
Y30650D01*
D02*
G37*
G36*
X34118D02*
X30665D01*
Y27197D01*
X34118D01*
Y30650D01*
D02*
G37*
G36*
X44083Y45339D02*
X38933D01*
Y40189D01*
X39886D01*
Y27687D01*
X38665Y26466D01*
X37901Y26314D01*
X37179Y25832D01*
X36697Y25111D01*
X36528Y24260D01*
X36697Y23409D01*
X37179Y22687D01*
X37901Y22205D01*
X38752Y22036D01*
X39603Y22205D01*
X40325Y22687D01*
X40806Y23409D01*
X40958Y24173D01*
X42655Y25869D01*
X43006Y26395D01*
X43130Y27016D01*
Y40189D01*
X44083D01*
Y45339D01*
D02*
G37*
%LPD*%
D12*
X35602Y42764D02*
D03*
X108437D02*
D03*
X181272D02*
D03*
X254106D02*
D03*
D13*
X41508D02*
D03*
X114342D02*
D03*
X187177D02*
D03*
X260012D02*
D03*
D14*
X25760Y14417D02*
X34618Y5559D01*
X25760Y14417D02*
Y40902D01*
X19461Y34602D02*
X25760Y40902D01*
X27622Y42764D01*
X35602D01*
X13555Y34602D02*
X19461D01*
X34618Y5559D02*
X52335D01*
X98594Y14417D02*
X107453Y5559D01*
X98594Y14417D02*
Y40902D01*
X92295Y34602D02*
X98594Y40902D01*
X100457Y42764D01*
X108437D01*
X86390Y34602D02*
X92295D01*
X107453Y5559D02*
X125169D01*
X171429Y14417D02*
X180287Y5559D01*
X171429Y14417D02*
Y40902D01*
X165130Y34602D02*
X171429Y40902D01*
X173291Y42764D01*
X181272D01*
X159224Y34602D02*
X165130D01*
X180287Y5559D02*
X198004D01*
X244264Y14417D02*
X253122Y5559D01*
X244264Y14417D02*
Y40902D01*
X237965Y34602D02*
X244264Y40902D01*
X246126Y42764D01*
X254106D01*
X232059Y34602D02*
X237965D01*
X253122Y5559D02*
X270839D01*
X247980Y97992D02*
X248024Y98035D01*
Y101949D01*
X248067Y101992D01*
X259067Y97992D02*
X255067D01*
X261067Y82870D02*
Y95992D01*
X259067Y97992D01*
X253689Y75492D02*
X261067Y82870D01*
X247980Y87165D02*
X243894D01*
X238067Y92992D01*
X255067Y87165D02*
Y90492D01*
X247980Y84079D02*
Y87165D01*
X178858Y97992D02*
X178902Y98035D01*
Y101949D01*
X178945Y101992D01*
X189945Y97992D02*
X185945D01*
X191945Y82870D02*
Y95992D01*
X189945Y97992D01*
X184567Y75492D02*
X191945Y82870D01*
X178858Y87165D02*
X174772D01*
X168945Y92992D01*
X185945Y87165D02*
Y90492D01*
X178858Y84079D02*
Y87165D01*
X109736Y97992D02*
X109780Y98035D01*
Y101949D01*
X109823Y101992D01*
X120823Y97992D02*
X116823D01*
X122823Y82870D02*
Y95992D01*
X120823Y97992D01*
X115445Y75492D02*
X122823Y82870D01*
X109736Y87165D02*
X105650D01*
X99823Y92992D01*
X116823Y87165D02*
Y90492D01*
X109736Y84079D02*
Y87165D01*
X40614Y97992D02*
X40657Y98035D01*
Y101949D01*
X40701Y101992D01*
X51701Y97992D02*
X47701D01*
X53701Y82870D02*
Y95992D01*
X51701Y97992D01*
X46323Y75492D02*
X53701Y82870D01*
X40614Y87165D02*
X36527D01*
X30701Y92992D01*
X47701Y87165D02*
Y90492D01*
X40614Y84079D02*
Y87165D01*
D15*
X41508Y27016D02*
Y42764D01*
X38752Y24260D02*
X41508Y27016D01*
X114342D02*
Y42764D01*
X111587Y24260D02*
X114342Y27016D01*
X187177D02*
Y42764D01*
X184421Y24260D02*
X187177Y27016D01*
X260012D02*
Y42764D01*
X257256Y24260D02*
X260012Y27016D01*
D17*
X215748Y79724D02*
D03*
Y83661D02*
D03*
Y91535D02*
D03*
Y87598D02*
D03*
X218504D02*
D03*
Y91535D02*
D03*
Y83661D02*
D03*
Y79724D02*
D03*
X197244Y80118D02*
D03*
Y84055D02*
D03*
Y91929D02*
D03*
Y87992D02*
D03*
X200000D02*
D03*
Y91929D02*
D03*
Y84055D02*
D03*
Y80118D02*
D03*
X147244Y79724D02*
D03*
Y83661D02*
D03*
Y91535D02*
D03*
Y87598D02*
D03*
X150000D02*
D03*
Y91535D02*
D03*
Y83661D02*
D03*
Y79724D02*
D03*
X128347Y80118D02*
D03*
Y84055D02*
D03*
Y91929D02*
D03*
Y87992D02*
D03*
X131102D02*
D03*
Y91929D02*
D03*
Y84055D02*
D03*
Y80118D02*
D03*
X77953Y79724D02*
D03*
Y83661D02*
D03*
Y91535D02*
D03*
Y87598D02*
D03*
X80709D02*
D03*
Y91535D02*
D03*
Y83661D02*
D03*
Y79724D02*
D03*
X61811D02*
D03*
Y83661D02*
D03*
Y91535D02*
D03*
Y87598D02*
D03*
X59055D02*
D03*
Y91535D02*
D03*
Y83661D02*
D03*
Y79724D02*
D03*
X254528Y59842D02*
D03*
X250591D02*
D03*
X242717D02*
D03*
X246654D02*
D03*
Y62598D02*
D03*
X242717D02*
D03*
X250591D02*
D03*
X254528D02*
D03*
X181693Y59842D02*
D03*
X177756D02*
D03*
X169882D02*
D03*
X173819D02*
D03*
Y62598D02*
D03*
X169882D02*
D03*
X177756D02*
D03*
X181693D02*
D03*
X214370Y29528D02*
D03*
Y25591D02*
D03*
Y17717D02*
D03*
Y21654D02*
D03*
X217126D02*
D03*
Y17717D02*
D03*
Y25591D02*
D03*
Y29528D02*
D03*
X109252Y59842D02*
D03*
X105315D02*
D03*
X97441D02*
D03*
X101378D02*
D03*
Y62598D02*
D03*
X97441D02*
D03*
X105315D02*
D03*
X109252D02*
D03*
X141929Y29528D02*
D03*
Y25591D02*
D03*
Y17717D02*
D03*
Y21654D02*
D03*
X144685D02*
D03*
Y17717D02*
D03*
Y25591D02*
D03*
Y29528D02*
D03*
X36811Y59842D02*
D03*
X32874D02*
D03*
X25000D02*
D03*
X28937D02*
D03*
Y62598D02*
D03*
X25000D02*
D03*
X32874D02*
D03*
X36811D02*
D03*
X69488Y29528D02*
D03*
Y25591D02*
D03*
Y17717D02*
D03*
Y21654D02*
D03*
X72244D02*
D03*
Y17717D02*
D03*
Y25591D02*
D03*
Y29528D02*
D03*
D18*
X59618Y44339D02*
D03*
X14343Y8118D02*
D03*
X132453Y44339D02*
D03*
X87177Y8118D02*
D03*
X205287Y44339D02*
D03*
X160012Y8118D02*
D03*
X278122Y44339D02*
D03*
X232846Y8118D02*
D03*
X228567Y93992D02*
D03*
X159445D02*
D03*
X90323D02*
D03*
X21201D02*
D03*
D19*
X13555Y26728D02*
D03*
Y42476D02*
D03*
Y34602D02*
D03*
X34618Y5559D02*
D03*
X52335D02*
D03*
Y31150D02*
D03*
X86390Y26728D02*
D03*
Y42476D02*
D03*
Y34602D02*
D03*
X107453Y5559D02*
D03*
X125169D02*
D03*
Y31150D02*
D03*
X159224Y26728D02*
D03*
Y42476D02*
D03*
Y34602D02*
D03*
X180287Y5559D02*
D03*
X198004D02*
D03*
Y31150D02*
D03*
X232059Y26728D02*
D03*
Y42476D02*
D03*
Y34602D02*
D03*
X253122Y5559D02*
D03*
X270839D02*
D03*
Y31150D02*
D03*
X253689Y75492D02*
D03*
X237941D02*
D03*
X245815D02*
D03*
X184567D02*
D03*
X168819D02*
D03*
X176693D02*
D03*
X115445D02*
D03*
X99697D02*
D03*
X107571D02*
D03*
X46323D02*
D03*
X30575D02*
D03*
X38449D02*
D03*
D20*
X13555Y50350D02*
D03*
X34618Y31150D02*
D03*
X86390Y50350D02*
D03*
X107453Y31150D02*
D03*
X159224Y50350D02*
D03*
X180287Y31150D02*
D03*
X232059Y50350D02*
D03*
X253122Y31150D02*
D03*
D21*
X38752Y24260D02*
D03*
X111587D02*
D03*
X184421D02*
D03*
X257256D02*
D03*
X248067Y101992D02*
D03*
X238067Y92992D02*
D03*
X255067Y90492D02*
D03*
X178945Y101992D02*
D03*
X168945Y92992D02*
D03*
X185945Y90492D02*
D03*
X109823Y101992D02*
D03*
X99823Y92992D02*
D03*
X116823Y90492D02*
D03*
X40701Y101992D02*
D03*
X30701Y92992D02*
D03*
X47701Y90492D02*
D03*
D22*
X230067Y75492D02*
D03*
X160945D02*
D03*
X91823D02*
D03*
X22701D02*
D03*
D23*
X255067Y87165D02*
D03*
X247980D02*
D03*
X255067Y97992D02*
D03*
X185945Y87165D02*
D03*
X178858D02*
D03*
X185945Y97992D02*
D03*
X116823Y87165D02*
D03*
X109736D02*
D03*
X116823Y97992D02*
D03*
X47701Y87165D02*
D03*
X40614D02*
D03*
X47701Y97992D02*
D03*
D24*
X247980D02*
D03*
X178858D02*
D03*
X109736D02*
D03*
X40614D02*
D03*
M02*
