G04*
G04 #@! TF.GenerationSoftware,Altium Limited,Altium Designer,20.1.8 (145)*
G04*
G04 Layer_Color=8421504*
%FSLAX25Y25*%
%MOIN*%
G70*
G04*
G04 #@! TF.SameCoordinates,412804ED-27A4-4B33-A170-4839FA9A990F*
G04*
G04*
G04 #@! TF.FilePolarity,Positive*
G04*
G01*
G75*
%ADD10R,0.03740X0.01968*%
G04:AMPARAMS|DCode=11|XSize=19.68mil|YSize=37.4mil|CornerRadius=4.92mil|HoleSize=0mil|Usage=FLASHONLY|Rotation=270.000|XOffset=0mil|YOffset=0mil|HoleType=Round|Shape=RoundedRectangle|*
%AMROUNDEDRECTD11*
21,1,0.01968,0.02756,0,0,270.0*
21,1,0.00984,0.03740,0,0,270.0*
1,1,0.00984,-0.01378,-0.00492*
1,1,0.00984,-0.01378,0.00492*
1,1,0.00984,0.01378,0.00492*
1,1,0.00984,0.01378,-0.00492*
%
%ADD11ROUNDEDRECTD11*%
G04:AMPARAMS|DCode=12|XSize=31.5mil|YSize=31.5mil|CornerRadius=7.87mil|HoleSize=0mil|Usage=FLASHONLY|Rotation=0.000|XOffset=0mil|YOffset=0mil|HoleType=Round|Shape=RoundedRectangle|*
%AMROUNDEDRECTD12*
21,1,0.03150,0.01575,0,0,0.0*
21,1,0.01575,0.03150,0,0,0.0*
1,1,0.01575,0.00787,-0.00787*
1,1,0.01575,-0.00787,-0.00787*
1,1,0.01575,-0.00787,0.00787*
1,1,0.01575,0.00787,0.00787*
%
%ADD12ROUNDEDRECTD12*%
%ADD13R,0.03150X0.03150*%
%ADD16R,0.03543X0.01968*%
D10*
X54894Y15114D02*
D03*
Y20232D02*
D03*
X35996Y20126D02*
D03*
Y15008D02*
D03*
X45445Y15008D02*
D03*
Y20126D02*
D03*
X127728Y15114D02*
D03*
Y20232D02*
D03*
X108831Y20126D02*
D03*
Y15008D02*
D03*
X118280Y15008D02*
D03*
Y20126D02*
D03*
X200563Y15114D02*
D03*
Y20232D02*
D03*
X181665Y20126D02*
D03*
Y15008D02*
D03*
X191114Y15008D02*
D03*
Y20126D02*
D03*
X273398Y15114D02*
D03*
Y20232D02*
D03*
X254500Y20126D02*
D03*
Y15008D02*
D03*
X263949Y15008D02*
D03*
Y20126D02*
D03*
X260067Y87933D02*
D03*
Y93051D02*
D03*
X190945Y87933D02*
D03*
Y93051D02*
D03*
X121823Y87933D02*
D03*
Y93051D02*
D03*
X52701Y87933D02*
D03*
Y93051D02*
D03*
D11*
X61193Y32651D02*
D03*
Y27533D02*
D03*
X134028Y32651D02*
D03*
Y27533D02*
D03*
X206862Y32651D02*
D03*
Y27533D02*
D03*
X279697Y32651D02*
D03*
Y27533D02*
D03*
D12*
X35602Y42764D02*
D03*
X108437D02*
D03*
X181272D02*
D03*
X254106D02*
D03*
D13*
X41508D02*
D03*
X114342D02*
D03*
X187177D02*
D03*
X260012D02*
D03*
D16*
X242067Y93051D02*
D03*
Y87933D02*
D03*
X251067Y93051D02*
D03*
Y87933D02*
D03*
X172945Y93051D02*
D03*
Y87933D02*
D03*
X181945Y93051D02*
D03*
Y87933D02*
D03*
X103823Y93051D02*
D03*
Y87933D02*
D03*
X112823Y93051D02*
D03*
Y87933D02*
D03*
X34701Y93051D02*
D03*
Y87933D02*
D03*
X43701Y93051D02*
D03*
Y87933D02*
D03*
M02*
