G04*
G04 #@! TF.GenerationSoftware,Altium Limited,Altium Designer,20.1.8 (145)*
G04*
G04 Layer_Color=16711935*
%FSLAX25Y25*%
%MOIN*%
G70*
G04*
G04 #@! TF.SameCoordinates,412804ED-27A4-4B33-A170-4839FA9A990F*
G04*
G04*
G04 #@! TF.FilePolarity,Positive*
G04*
G01*
G75*
%ADD14C,0.01000*%
D14*
X215354Y93504D02*
G03*
X218898Y93504I1772J-197D01*
G01*
Y73808D02*
G03*
X215354Y73808I-1772J197D01*
G01*
X196850Y93898D02*
G03*
X200394Y93898I1772J-197D01*
G01*
Y74202D02*
G03*
X196850Y74202I-1772J197D01*
G01*
X146850Y93504D02*
G03*
X150394Y93504I1772J-197D01*
G01*
Y73808D02*
G03*
X146850Y73808I-1772J197D01*
G01*
X127953Y93898D02*
G03*
X131496Y93898I1772J-197D01*
G01*
Y74202D02*
G03*
X127953Y74202I-1772J197D01*
G01*
X77559Y93504D02*
G03*
X81102Y93504I1772J-197D01*
G01*
Y73808D02*
G03*
X77559Y73808I-1772J197D01*
G01*
X62205D02*
G03*
X58661Y73808I-1772J197D01*
G01*
Y93504D02*
G03*
X62205Y93504I1772J-197D01*
G01*
X240748Y59449D02*
G03*
X240748Y62992I197J1772D01*
G01*
X260444D02*
G03*
X260444Y59449I-197J-1772D01*
G01*
X167913D02*
G03*
X167913Y62992I197J1772D01*
G01*
X144291Y59449D02*
G03*
X144291Y62992I-12916805J1772D01*
G01*
X187609D02*
G03*
X187609Y59449I-197J-1772D01*
G01*
X213976Y35433D02*
G03*
X217520Y35433I1772J-197D01*
G01*
Y15945D02*
G03*
X213976Y15945I-1772J197D01*
G01*
X95473Y59449D02*
G03*
X95473Y62992I197J1772D01*
G01*
X71850Y59449D02*
G03*
X71850Y62992I-12916805J1772D01*
G01*
X115168D02*
G03*
X115168Y59449I-197J-1772D01*
G01*
X141535Y35433D02*
G03*
X145079Y35433I1772J-197D01*
G01*
Y15945D02*
G03*
X141535Y15945I-1772J197D01*
G01*
X23031Y59449D02*
G03*
X23031Y62992I197J1772D01*
G01*
X12106D02*
G03*
X12106Y59449I5165J-1772D01*
G01*
X42727Y62992D02*
G03*
X42727Y59449I-197J-1772D01*
G01*
X69095Y35433D02*
G03*
X72638Y35433I1772J-197D01*
G01*
Y15945D02*
G03*
X69095Y15945I-1772J197D01*
G01*
X215354Y61811D02*
Y73808D01*
Y61811D02*
X218898D01*
Y73808D01*
X215354Y105512D02*
X218898D01*
X215354Y93504D02*
Y105512D01*
X218898Y93504D02*
Y105512D01*
X196850Y62205D02*
Y74202D01*
Y62205D02*
X200394D01*
Y74202D01*
X196850Y105905D02*
X200394D01*
X196850Y93898D02*
Y105905D01*
X200394Y93898D02*
Y105905D01*
X146850Y61811D02*
Y73808D01*
Y61811D02*
X150394D01*
Y73808D01*
X146850Y105512D02*
X150394D01*
X146850Y93504D02*
Y105512D01*
X150394Y93504D02*
Y105512D01*
X127953Y62205D02*
Y74202D01*
Y62205D02*
X131496D01*
Y74202D01*
X127953Y105905D02*
X131496D01*
X127953Y93898D02*
Y105905D01*
X131496Y93898D02*
Y105905D01*
X77559Y61811D02*
Y73808D01*
Y61811D02*
X81102D01*
Y73808D01*
X77559Y105512D02*
X81102D01*
X77559Y93504D02*
Y105512D01*
X81102Y93504D02*
Y105512D01*
X62205Y93504D02*
Y105512D01*
X58661Y93504D02*
Y105512D01*
X62205D01*
X62205Y61811D02*
Y73808D01*
X58661Y61811D02*
X62205D01*
X58661D02*
Y73808D01*
X265748Y59449D02*
X287402D01*
X265748D02*
Y104724D01*
X264567D02*
X265748D01*
X260444Y59449D02*
X266929D01*
Y62992D01*
X260444D02*
X266929D01*
X11811Y104724D02*
X264567D01*
X11811Y62992D02*
Y104724D01*
X0Y59449D02*
X11811D01*
Y62992D01*
X287402Y0D02*
Y59449D01*
X0Y0D02*
X287402D01*
X0D02*
Y59449D01*
X216535Y59449D02*
Y62992D01*
Y59449D02*
X240748D01*
X216535Y62992D02*
X240748D01*
X144291Y59449D02*
X167913D01*
X144291Y62992D02*
X167913D01*
X187609Y59449D02*
X213976D01*
Y35433D02*
Y59449D01*
X217520Y35433D02*
Y62599D01*
X187609Y62992D02*
X217520D01*
Y-787D02*
Y15945D01*
X213976Y-787D02*
Y15945D01*
Y-787D02*
X217520D01*
X71850Y59449D02*
X95473D01*
X71850Y62992D02*
X95473D01*
X115168Y59449D02*
X141535D01*
Y35433D02*
Y59449D01*
X145079Y35433D02*
Y62599D01*
X115168Y62992D02*
X145079D01*
Y-787D02*
Y15945D01*
X141535Y-787D02*
Y15945D01*
Y-787D02*
X145079D01*
X11811Y59449D02*
X23031D01*
X11811Y62992D02*
X23031D01*
X42727Y59449D02*
X69095D01*
Y35433D02*
Y59449D01*
X72638Y35433D02*
Y62599D01*
X42727Y62992D02*
X72638D01*
Y-787D02*
Y15945D01*
X69095Y-787D02*
Y15945D01*
Y-787D02*
X72638D01*
M02*
