G04*
G04 #@! TF.GenerationSoftware,Altium Limited,Altium Designer,20.1.8 (145)*
G04*
G04 Layer_Color=16711935*
%FSLAX25Y25*%
%MOIN*%
G70*
G04*
G04 #@! TF.SameCoordinates,4EEE358A-EBC4-4D44-B4B5-89C592D5BD6F*
G04*
G04*
G04 #@! TF.FilePolarity,Positive*
G04*
G01*
G75*
%ADD12C,0.01000*%
D12*
X160433Y137795D02*
G03*
X160433Y141339I197J1772D01*
G01*
X179932D02*
G03*
X179932Y137795I-197J-1772D01*
G01*
X126772Y157885D02*
G03*
X130315Y157885I1772J-197D01*
G01*
Y138386D02*
G03*
X126772Y138386I-1772J197D01*
G01*
X75197Y157491D02*
G03*
X78740Y157491I1772J-197D01*
G01*
Y137992D02*
G03*
X75197Y137992I-1772J197D01*
G01*
X51378Y137992D02*
G03*
X47835Y137992I-1772J197D01*
G01*
Y157491D02*
G03*
X51378Y157491I1772J-197D01*
G01*
X145276Y90551D02*
G03*
X145276Y94095I-12916805J1772D01*
G01*
X160433Y90354D02*
G03*
X160433Y93898I197J1772D01*
G01*
X179932D02*
G03*
X179932Y90354I-197J-1772D01*
G01*
X72638Y79109D02*
G03*
X69095Y79109I-1772J197D01*
G01*
Y98597D02*
G03*
X72638Y98597I1772J-197D01*
G01*
X42727Y126157D02*
G03*
X42727Y122613I-197J-1772D01*
G01*
X23031D02*
G03*
X23031Y126157I197J1772D01*
G01*
X145079Y79109D02*
G03*
X141535Y79109I-1772J197D01*
G01*
Y98597D02*
G03*
X145079Y98597I1772J-197D01*
G01*
X115168Y126157D02*
G03*
X115168Y122613I-197J-1772D01*
G01*
X71850D02*
G03*
X71850Y126157I-12916805J1772D01*
G01*
X95473Y122613D02*
G03*
X95473Y126157I197J1772D01*
G01*
X179932Y46654D02*
G03*
X179932Y43110I-197J-1772D01*
G01*
X142520Y43110D02*
G03*
X142520Y46654I-12916805J1772D01*
G01*
X160433Y43110D02*
G03*
X160433Y46654I197J1772D01*
G01*
X95473Y59449D02*
G03*
X95473Y62992I197J1772D01*
G01*
X71850Y59449D02*
G03*
X71850Y62992I-12916805J1772D01*
G01*
X115168D02*
G03*
X115168Y59449I-197J-1772D01*
G01*
X141535Y35433D02*
G03*
X145079Y35433I1772J-197D01*
G01*
Y15945D02*
G03*
X141535Y15945I-1772J197D01*
G01*
X23031Y59449D02*
G03*
X23031Y62992I197J1772D01*
G01*
X42727D02*
G03*
X42727Y59449I-197J-1772D01*
G01*
X69095Y35433D02*
G03*
X72638Y35433I1772J-197D01*
G01*
Y15945D02*
G03*
X69095Y15945I-1772J197D01*
G01*
X141535Y124016D02*
X145079D01*
X141535D02*
Y141339D01*
X115168Y122613D02*
X141535D01*
X115168Y126157D02*
X145079D01*
Y124016D02*
Y137599D01*
X145276Y137795D01*
X160433D01*
X141535Y141339D02*
X160433D01*
X194095Y137795D02*
Y141339D01*
X179932Y137795D02*
X194095D01*
X179932Y141339D02*
X194095D01*
X126772Y157885D02*
Y170079D01*
X130315Y157885D02*
Y170079D01*
X126772Y138386D02*
X126772Y125197D01*
X130315Y138386D02*
X130315Y125197D01*
X126772Y125197D02*
X130315D01*
X126772Y170079D02*
X130315D01*
X75197Y157491D02*
Y169685D01*
X78740Y157491D02*
Y169685D01*
X75197Y137992D02*
X75197Y124803D01*
X78740Y137992D02*
X78740Y124803D01*
X75197Y124803D02*
X78740D01*
X75197Y169685D02*
X78740D01*
X47835Y169685D02*
X51378D01*
X47835Y124803D02*
X51378D01*
X0Y168898D02*
X192913D01*
X51378Y137992D02*
X51378Y124803D01*
X47835Y137992D02*
X47835Y124803D01*
X51378Y157491D02*
Y169685D01*
X47835Y157491D02*
Y169685D01*
X145276Y90354D02*
X160433Y90354D01*
X145276Y93898D02*
X160433Y93898D01*
X194095Y90354D02*
Y93898D01*
X179932Y90354D02*
X194095D01*
X179932Y93898D02*
X194095D01*
X69095Y62377D02*
X72638D01*
X69095D02*
Y79109D01*
X72638Y62377D02*
Y79109D01*
X42727Y126157D02*
X72638D01*
Y98597D02*
Y125763D01*
X69095Y98598D02*
Y122613D01*
X42727D02*
X69095D01*
X-787Y126157D02*
X23031D01*
X-787Y122613D02*
X23031D01*
X141535Y62377D02*
X145079D01*
X141535D02*
Y79109D01*
X145079Y62377D02*
Y79109D01*
Y98991D02*
Y126157D01*
X141535Y98598D02*
Y124016D01*
X71850Y126157D02*
X95473D01*
X71850Y122613D02*
X95473D01*
X-787D02*
Y126157D01*
X179932Y46654D02*
X194095D01*
X179932Y43110D02*
X194095D01*
Y46654D01*
X142520Y46654D02*
X160433Y46654D01*
X142520Y43110D02*
X160433Y43110D01*
X192913Y168898D02*
X192913Y0D01*
X0Y59449D02*
Y168898D01*
X-787Y59449D02*
Y62992D01*
X0Y0D02*
X192913D01*
X0D02*
Y59449D01*
X71850D02*
X95473D01*
X71850Y62992D02*
X95473D01*
X115168Y59449D02*
X141535D01*
Y35433D02*
Y59449D01*
X145079Y35433D02*
Y62599D01*
X115168Y62992D02*
X145079D01*
Y-787D02*
Y15945D01*
X141535Y-787D02*
Y15945D01*
Y-787D02*
X145079D01*
X-787Y59449D02*
X23031D01*
X-787Y62992D02*
X23031D01*
X42727Y59449D02*
X69095D01*
Y35433D02*
Y59449D01*
X72638Y35433D02*
Y62599D01*
X42727Y62992D02*
X72638D01*
Y-787D02*
Y15945D01*
X69095Y-787D02*
Y15945D01*
Y-787D02*
X72638D01*
M02*
