G04*
G04 #@! TF.GenerationSoftware,Altium Limited,Altium Designer,20.1.8 (145)*
G04*
G04 Layer_Physical_Order=1*
G04 Layer_Color=255*
%FSLAX25Y25*%
%MOIN*%
G70*
G04*
G04 #@! TF.SameCoordinates,4EEE358A-EBC4-4D44-B4B5-89C592D5BD6F*
G04*
G04*
G04 #@! TF.FilePolarity,Positive*
G04*
G01*
G75*
%ADD10R,0.03740X0.01968*%
%ADD11R,0.03543X0.01968*%
%ADD12C,0.01000*%
G04:AMPARAMS|DCode=13|XSize=19.68mil|YSize=37.4mil|CornerRadius=4.92mil|HoleSize=0mil|Usage=FLASHONLY|Rotation=270.000|XOffset=0mil|YOffset=0mil|HoleType=Round|Shape=RoundedRectangle|*
%AMROUNDEDRECTD13*
21,1,0.01968,0.02756,0,0,270.0*
21,1,0.00984,0.03740,0,0,270.0*
1,1,0.00984,-0.01378,-0.00492*
1,1,0.00984,-0.01378,0.00492*
1,1,0.00984,0.01378,0.00492*
1,1,0.00984,0.01378,-0.00492*
%
%ADD13ROUNDEDRECTD13*%
G04:AMPARAMS|DCode=14|XSize=31.5mil|YSize=31.5mil|CornerRadius=7.87mil|HoleSize=0mil|Usage=FLASHONLY|Rotation=0.000|XOffset=0mil|YOffset=0mil|HoleType=Round|Shape=RoundedRectangle|*
%AMROUNDEDRECTD14*
21,1,0.03150,0.01575,0,0,0.0*
21,1,0.01575,0.03150,0,0,0.0*
1,1,0.01575,0.00787,-0.00787*
1,1,0.01575,-0.00787,-0.00787*
1,1,0.01575,-0.00787,0.00787*
1,1,0.01575,0.00787,0.00787*
%
%ADD14ROUNDEDRECTD14*%
%ADD15R,0.03150X0.03150*%
%ADD16C,0.01181*%
%ADD17C,0.00122*%
%ADD18C,0.05906*%
%ADD19R,0.05906X0.05906*%
%ADD20C,0.11811*%
%ADD21C,0.02362*%
%ADD22R,0.05906X0.05906*%
D10*
X120303Y151319D02*
D03*
Y156437D02*
D03*
X41732Y151319D02*
D03*
Y156437D02*
D03*
X54894Y15114D02*
D03*
Y20232D02*
D03*
X35996Y20126D02*
D03*
Y15008D02*
D03*
X45445Y15008D02*
D03*
Y20126D02*
D03*
X127728Y15114D02*
D03*
Y20232D02*
D03*
X108831Y20126D02*
D03*
Y15008D02*
D03*
X118280Y15008D02*
D03*
Y20126D02*
D03*
X54894Y77713D02*
D03*
Y82831D02*
D03*
X35996Y82724D02*
D03*
Y77606D02*
D03*
X45445Y77606D02*
D03*
Y82724D02*
D03*
X127728Y77713D02*
D03*
Y82831D02*
D03*
X108831Y82724D02*
D03*
Y77606D02*
D03*
X118280Y77606D02*
D03*
Y82724D02*
D03*
X186051Y25728D02*
D03*
Y30847D02*
D03*
Y72973D02*
D03*
Y78091D02*
D03*
Y120217D02*
D03*
Y125335D02*
D03*
D11*
X102303Y156437D02*
D03*
Y151319D02*
D03*
X111303Y156437D02*
D03*
Y151319D02*
D03*
X23732Y156437D02*
D03*
Y151319D02*
D03*
X32732Y156437D02*
D03*
Y151319D02*
D03*
X168051Y30847D02*
D03*
Y25728D02*
D03*
X177051Y30847D02*
D03*
Y25728D02*
D03*
X168051Y78091D02*
D03*
Y72973D02*
D03*
X177051Y78091D02*
D03*
Y72973D02*
D03*
X168051Y125335D02*
D03*
Y120217D02*
D03*
X177051Y125335D02*
D03*
Y120217D02*
D03*
D12*
X106051Y138878D02*
Y140126D01*
X118803Y145878D02*
X111803D01*
X106051Y140126D02*
X111803Y145878D01*
X100075Y149878D02*
X97803D01*
X90670Y142745D02*
X97803Y149878D01*
X90303Y138878D02*
X90670Y139245D01*
Y142745D01*
X100075Y149878D02*
X101516Y151319D01*
X105075Y145878D02*
X100803D01*
X110031Y150835D02*
Y150835D01*
X105075Y145878D02*
X110031Y150835D01*
X111303Y151319D02*
X110516D01*
X110031Y150835D02*
X110516Y151319D01*
X115303Y165378D02*
X108303D01*
X120303Y160378D02*
X115303Y165378D01*
X120303Y156437D02*
Y160378D01*
X102244Y156378D02*
X102303Y156437D01*
X102244Y156378D02*
X98303D01*
X120303Y147378D02*
Y151319D01*
X118803Y145878D02*
X120303Y147378D01*
X98177Y138878D02*
X98256Y138957D01*
Y143331D01*
X100803Y145878D01*
X102303Y151319D02*
X101516D01*
X115303Y153878D02*
Y155378D01*
X114244Y156437D01*
X111303D01*
X27480Y138878D02*
Y140126D01*
X40232Y145878D02*
X33232D01*
X27480Y140126D02*
X33232Y145878D01*
X21504Y149878D02*
X19232D01*
X12099Y142745D02*
X19232Y149878D01*
X11732Y138878D02*
X12099Y139245D01*
Y142745D01*
X21504Y149878D02*
X22945Y151319D01*
X26504Y145878D02*
X22232D01*
X31461Y150835D02*
Y150835D01*
X26504Y145878D02*
X31461Y150835D01*
X32732Y151319D02*
X31945D01*
X31461Y150835D02*
X31945Y151319D01*
X36732Y165378D02*
X29732D01*
X41732Y160378D02*
X36732Y165378D01*
X41732Y156437D02*
Y160378D01*
X23673Y156378D02*
X23732Y156437D01*
X23673Y156378D02*
X19732D01*
X41732Y147378D02*
Y151319D01*
X40232Y145878D02*
X41732Y147378D01*
X19606Y138878D02*
X19685Y138957D01*
Y143331D01*
X22232Y145878D01*
X23732Y151319D02*
X22945D01*
X36732Y153878D02*
Y155378D01*
X35673Y156437D01*
X32732D01*
X13555Y50350D02*
X20724D01*
X28310Y42764D01*
X61193Y22791D02*
Y27533D01*
X58634Y20232D02*
X61193Y22791D01*
X54894Y20232D02*
X58634D01*
X86390Y50350D02*
X93559D01*
X101145Y42764D01*
X134028Y22791D02*
Y27533D01*
X131468Y20232D02*
X134028Y22791D01*
X127728Y20232D02*
X131468D01*
X13555Y112949D02*
X20724D01*
X28310Y105362D01*
X61193Y85390D02*
Y90131D01*
X58634Y82831D02*
X61193Y85390D01*
X54894Y82831D02*
X58634D01*
X86390Y112949D02*
X93559D01*
X101145Y105362D01*
X134028Y85390D02*
Y90131D01*
X131468Y82831D02*
X134028Y85390D01*
X127728Y82831D02*
X131468D01*
X171799Y13287D02*
Y14536D01*
X184551Y20287D02*
X177551D01*
X171799Y14536D02*
X177551Y20287D01*
X165823Y24287D02*
X163551D01*
X156418Y17154D02*
X163551Y24287D01*
X156051Y13287D02*
X156418Y13654D01*
Y17154D01*
X165823Y24287D02*
X167264Y25728D01*
X170823Y20287D02*
X166551D01*
X175779Y25244D02*
Y25244D01*
X170823Y20287D02*
X175779Y25244D01*
X177051Y25728D02*
X176264D01*
X175779Y25244D02*
X176264Y25728D01*
X181051Y39787D02*
X174051D01*
X186051Y34787D02*
X181051Y39787D01*
X186051Y30847D02*
Y34787D01*
X167992Y30787D02*
X168051Y30847D01*
X167992Y30787D02*
X164051D01*
X186051Y21787D02*
Y25728D01*
X184551Y20287D02*
X186051Y21787D01*
X163925Y13287D02*
X164004Y13366D01*
Y17740D01*
X166551Y20287D01*
X168051Y25728D02*
X167264D01*
X181051Y28287D02*
Y29787D01*
X179992Y30847D01*
X177051D01*
X171799Y60532D02*
Y61780D01*
X184551Y67532D02*
X177551D01*
X171799Y61780D02*
X177551Y67532D01*
X165823Y71531D02*
X163551D01*
X156418Y64398D02*
X163551Y71531D01*
X156051Y60532D02*
X156418Y60898D01*
Y64398D01*
X165823Y71531D02*
X167264Y72973D01*
X170823Y67532D02*
X166551D01*
X175779Y72488D02*
Y72488D01*
X170823Y67532D02*
X175779Y72488D01*
X177051Y72973D02*
X176264D01*
X175779Y72488D02*
X176264Y72973D01*
X181051Y87032D02*
X174051D01*
X186051Y82032D02*
X181051Y87032D01*
X186051Y78091D02*
Y82032D01*
X167992Y78031D02*
X168051Y78091D01*
X167992Y78031D02*
X164051D01*
X186051Y69032D02*
Y72973D01*
X184551Y67532D02*
X186051Y69032D01*
X163925Y60532D02*
X164004Y60610D01*
Y64984D01*
X166551Y67532D01*
X168051Y72973D02*
X167264D01*
X181051Y75532D02*
Y77031D01*
X179992Y78091D01*
X177051D01*
X171799Y107776D02*
Y109024D01*
X184551Y114776D02*
X177551D01*
X171799Y109024D02*
X177551Y114776D01*
X165823Y118776D02*
X163551D01*
X156418Y111643D02*
X163551Y118776D01*
X156051Y107776D02*
X156418Y108142D01*
Y111643D01*
X165823Y118776D02*
X167264Y120217D01*
X170823Y114776D02*
X166551D01*
X175779Y119732D02*
Y119732D01*
X170823Y114776D02*
X175779Y119732D01*
X177051Y120217D02*
X176264D01*
X175779Y119732D02*
X176264Y120217D01*
X181051Y134276D02*
X174051D01*
X186051Y129276D02*
X181051Y134276D01*
X186051Y125335D02*
Y129276D01*
X167992Y125276D02*
X168051Y125335D01*
X167992Y125276D02*
X164051D01*
X186051Y116276D02*
Y120217D01*
X184551Y114776D02*
X186051Y116276D01*
X163925Y107776D02*
X164004Y107854D01*
Y112228D01*
X166551Y114776D01*
X168051Y120217D02*
X167264D01*
X181051Y122776D02*
Y124276D01*
X179992Y125335D01*
X177051D01*
D13*
X61193Y32651D02*
D03*
Y27533D02*
D03*
X134028Y32651D02*
D03*
Y27533D02*
D03*
X61193Y95249D02*
D03*
Y90131D02*
D03*
X134028Y95249D02*
D03*
Y90131D02*
D03*
D14*
X35602Y42764D02*
D03*
X108437D02*
D03*
X35602Y105362D02*
D03*
X108437D02*
D03*
D15*
X41508Y42764D02*
D03*
X114342D02*
D03*
X41508Y105362D02*
D03*
X114342D02*
D03*
D16*
X13555Y26728D02*
X13678Y26605D01*
X18280D01*
X35996Y15008D02*
X45445D01*
X35996Y15008D02*
X35996Y15008D01*
X55287D02*
X55287Y15008D01*
X45445Y15008D02*
X55287D01*
X41508Y36858D02*
X45445Y32921D01*
Y20126D02*
Y32921D01*
X41508Y36858D02*
Y42764D01*
X29877Y15008D02*
X35996D01*
X18280Y26605D02*
X29877Y15008D01*
X28310Y42764D02*
X34618Y36456D01*
Y31150D02*
Y36456D01*
X28310Y42764D02*
X35602D01*
X52335Y31150D02*
X53613D01*
X55008Y32544D01*
X61193D01*
X49382Y34878D02*
Y44339D01*
Y34878D02*
X52335Y31925D01*
Y31150D02*
Y31925D01*
X46232Y47488D02*
X49382Y44339D01*
X37571Y47488D02*
X46232D01*
X35602Y45520D02*
X37571Y47488D01*
X35602Y42764D02*
Y45520D01*
X35996Y20126D02*
Y23079D01*
X37177Y24260D01*
X38752D01*
X86390Y26728D02*
X86513Y26605D01*
X91114D01*
X108831Y15008D02*
X118280D01*
X108831Y15008D02*
X108831Y15008D01*
X128122D02*
X128122Y15008D01*
X118280Y15008D02*
X128122D01*
X114342Y36858D02*
X118280Y32921D01*
Y20126D02*
Y32921D01*
X114342Y36858D02*
Y42764D01*
X102712Y15008D02*
X108831D01*
X91114Y26605D02*
X102712Y15008D01*
X101145Y42764D02*
X107453Y36456D01*
Y31150D02*
Y36456D01*
X101145Y42764D02*
X108437D01*
X125169Y31150D02*
X126448D01*
X127842Y32544D01*
X134028D01*
X122216Y34878D02*
Y44339D01*
Y34878D02*
X125169Y31925D01*
Y31150D02*
Y31925D01*
X119067Y47488D02*
X122216Y44339D01*
X110406Y47488D02*
X119067D01*
X108437Y45520D02*
X110406Y47488D01*
X108437Y42764D02*
Y45520D01*
X108831Y20126D02*
Y23079D01*
X110012Y24260D01*
X111587D01*
X13555Y89327D02*
X13678Y89204D01*
X18280D01*
X35996Y77606D02*
X45445D01*
X35996Y77606D02*
X35996Y77606D01*
X55287D02*
X55287Y77606D01*
X45445Y77606D02*
X55287D01*
X41508Y99457D02*
X45445Y95520D01*
Y82724D02*
Y95520D01*
X41508Y99457D02*
Y105362D01*
X29877Y77606D02*
X35996D01*
X18280Y89204D02*
X29877Y77606D01*
X28310Y105362D02*
X34618Y99055D01*
Y93748D02*
Y99055D01*
X28310Y105362D02*
X35602D01*
X52335Y93748D02*
X53613D01*
X55008Y95143D01*
X61193D01*
X49382Y97477D02*
Y106937D01*
Y97477D02*
X52335Y94524D01*
Y93748D02*
Y94524D01*
X46232Y110087D02*
X49382Y106937D01*
X37571Y110087D02*
X46232D01*
X35602Y108118D02*
X37571Y110087D01*
X35602Y105362D02*
Y108118D01*
X35996Y82724D02*
Y85677D01*
X37177Y86858D01*
X38752D01*
X86390Y89327D02*
X86513Y89204D01*
X91114D01*
X108831Y77606D02*
X118280D01*
X108831Y77606D02*
X108831Y77606D01*
X128122D02*
X128122Y77606D01*
X118280Y77606D02*
X128122D01*
X114342Y99457D02*
X118280Y95520D01*
Y82724D02*
Y95520D01*
X114342Y99457D02*
Y105362D01*
X102712Y77606D02*
X108831D01*
X91114Y89204D02*
X102712Y77606D01*
X101145Y105362D02*
X107453Y99055D01*
Y93748D02*
Y99055D01*
X101145Y105362D02*
X108437D01*
X125169Y93748D02*
X126448D01*
X127842Y95143D01*
X134028D01*
X122216Y97477D02*
Y106937D01*
Y97477D02*
X125169Y94524D01*
Y93748D02*
Y94524D01*
X119067Y110087D02*
X122216Y106937D01*
X110406Y110087D02*
X119067D01*
X108437Y108118D02*
X110406Y110087D01*
X108437Y105362D02*
Y108118D01*
X108831Y82724D02*
Y85677D01*
X110012Y86858D01*
X111587D01*
D17*
X174213Y138189D02*
D03*
X170275D02*
D03*
X162401D02*
D03*
X166339D02*
D03*
Y140945D02*
D03*
X162401D02*
D03*
X170275D02*
D03*
X174213D02*
D03*
X127165Y152165D02*
D03*
Y148228D02*
D03*
Y140354D02*
D03*
Y144291D02*
D03*
X129921D02*
D03*
Y140354D02*
D03*
Y148228D02*
D03*
Y152165D02*
D03*
X75591Y151772D02*
D03*
Y147835D02*
D03*
Y139961D02*
D03*
Y143898D02*
D03*
X78347D02*
D03*
Y139961D02*
D03*
Y147835D02*
D03*
Y151772D02*
D03*
X50984Y151772D02*
D03*
Y147835D02*
D03*
Y139961D02*
D03*
Y143898D02*
D03*
X48228D02*
D03*
Y139961D02*
D03*
Y147835D02*
D03*
Y151772D02*
D03*
X141929Y84818D02*
D03*
Y80881D02*
D03*
Y88755D02*
D03*
Y92692D02*
D03*
X174213Y90748D02*
D03*
X170275D02*
D03*
X162401D02*
D03*
X166339D02*
D03*
Y93504D02*
D03*
X162401D02*
D03*
X170275D02*
D03*
X174213D02*
D03*
X69488Y84818D02*
D03*
Y80881D02*
D03*
Y88755D02*
D03*
Y92692D02*
D03*
X36811Y125763D02*
D03*
X32874D02*
D03*
X25000D02*
D03*
X28937D02*
D03*
Y123007D02*
D03*
X25000D02*
D03*
X32874D02*
D03*
X36811D02*
D03*
X144685Y92692D02*
D03*
Y88755D02*
D03*
Y80881D02*
D03*
Y84818D02*
D03*
X109252Y125763D02*
D03*
X105315D02*
D03*
X97441D02*
D03*
X101378D02*
D03*
Y123007D02*
D03*
X97441D02*
D03*
X105315D02*
D03*
X109252D02*
D03*
X72244Y92692D02*
D03*
Y88755D02*
D03*
Y80881D02*
D03*
Y84818D02*
D03*
Y21654D02*
D03*
Y17717D02*
D03*
Y25591D02*
D03*
Y29528D02*
D03*
X174213Y46260D02*
D03*
X170275D02*
D03*
X162401D02*
D03*
X166339D02*
D03*
Y43504D02*
D03*
X162401D02*
D03*
X170275D02*
D03*
X174213D02*
D03*
X109252Y59842D02*
D03*
X105315D02*
D03*
X97441D02*
D03*
X101378D02*
D03*
Y62598D02*
D03*
X97441D02*
D03*
X105315D02*
D03*
X109252D02*
D03*
X141929Y29528D02*
D03*
Y25591D02*
D03*
Y17717D02*
D03*
Y21654D02*
D03*
X144685D02*
D03*
Y17717D02*
D03*
Y25591D02*
D03*
Y29528D02*
D03*
X36811Y59842D02*
D03*
X32874D02*
D03*
X25000D02*
D03*
X28937D02*
D03*
Y62598D02*
D03*
X25000D02*
D03*
X32874D02*
D03*
X36811D02*
D03*
X69488Y29528D02*
D03*
Y25591D02*
D03*
Y17717D02*
D03*
Y21654D02*
D03*
D18*
X113925Y138878D02*
D03*
X98177D02*
D03*
X106051D02*
D03*
X35354D02*
D03*
X19606D02*
D03*
X27480D02*
D03*
X13555Y26728D02*
D03*
Y42476D02*
D03*
Y34602D02*
D03*
X34618Y5559D02*
D03*
X52335D02*
D03*
Y31150D02*
D03*
X86390Y26728D02*
D03*
Y42476D02*
D03*
Y34602D02*
D03*
X107453Y5559D02*
D03*
X125169D02*
D03*
Y31150D02*
D03*
X13555Y89327D02*
D03*
Y105075D02*
D03*
Y97201D02*
D03*
X34618Y68158D02*
D03*
X52335D02*
D03*
Y93748D02*
D03*
X86390Y89327D02*
D03*
Y105075D02*
D03*
Y97201D02*
D03*
X107453Y68158D02*
D03*
X125169D02*
D03*
Y93748D02*
D03*
X179673Y13287D02*
D03*
X163925D02*
D03*
X171799D02*
D03*
X179673Y60532D02*
D03*
X163925D02*
D03*
X171799D02*
D03*
X179673Y107776D02*
D03*
X163925D02*
D03*
X171799D02*
D03*
D19*
X90303Y138878D02*
D03*
X11732D02*
D03*
X156051Y13287D02*
D03*
Y60532D02*
D03*
Y107776D02*
D03*
D20*
X88803Y157378D02*
D03*
X10232D02*
D03*
X59618Y44339D02*
D03*
X14343Y8118D02*
D03*
X132453Y44339D02*
D03*
X87177Y8118D02*
D03*
X59618Y106937D02*
D03*
X14343Y70717D02*
D03*
X132453Y106937D02*
D03*
X87177Y70717D02*
D03*
X154551Y31787D02*
D03*
Y79031D02*
D03*
Y126276D02*
D03*
D21*
X108303Y165378D02*
D03*
X98303Y156378D02*
D03*
X115303Y153878D02*
D03*
X29732Y165378D02*
D03*
X19732Y156378D02*
D03*
X36732Y153878D02*
D03*
X38752Y24260D02*
D03*
X111587D02*
D03*
X38752Y86858D02*
D03*
X111587D02*
D03*
X174051Y39787D02*
D03*
X164051Y30787D02*
D03*
X181051Y28287D02*
D03*
X174051Y87032D02*
D03*
X164051Y78031D02*
D03*
X181051Y75532D02*
D03*
X174051Y134276D02*
D03*
X164051Y125276D02*
D03*
X181051Y122776D02*
D03*
D22*
X13555Y50350D02*
D03*
X34618Y31150D02*
D03*
X86390Y50350D02*
D03*
X107453Y31150D02*
D03*
X13555Y112949D02*
D03*
X34618Y93748D02*
D03*
X86390Y112949D02*
D03*
X107453Y93748D02*
D03*
M02*
