G04*
G04 #@! TF.GenerationSoftware,Altium Limited,Altium Designer,20.1.8 (145)*
G04*
G04 Layer_Color=8388736*
%FSLAX25Y25*%
%MOIN*%
G70*
G04*
G04 #@! TF.SameCoordinates,4EEE358A-EBC4-4D44-B4B5-89C592D5BD6F*
G04*
G04*
G04 #@! TF.FilePolarity,Negative*
G04*
G01*
G75*
%ADD29R,0.04540X0.02769*%
%ADD30R,0.04343X0.02769*%
G04:AMPARAMS|DCode=31|XSize=27.69mil|YSize=45.4mil|CornerRadius=8.92mil|HoleSize=0mil|Usage=FLASHONLY|Rotation=270.000|XOffset=0mil|YOffset=0mil|HoleType=Round|Shape=RoundedRectangle|*
%AMROUNDEDRECTD31*
21,1,0.02769,0.02756,0,0,270.0*
21,1,0.00984,0.04540,0,0,270.0*
1,1,0.01784,-0.01378,-0.00492*
1,1,0.01784,-0.01378,0.00492*
1,1,0.01784,0.01378,0.00492*
1,1,0.01784,0.01378,-0.00492*
%
%ADD31ROUNDEDRECTD31*%
G04:AMPARAMS|DCode=32|XSize=39.5mil|YSize=39.5mil|CornerRadius=11.87mil|HoleSize=0mil|Usage=FLASHONLY|Rotation=0.000|XOffset=0mil|YOffset=0mil|HoleType=Round|Shape=RoundedRectangle|*
%AMROUNDEDRECTD32*
21,1,0.03950,0.01575,0,0,0.0*
21,1,0.01575,0.03950,0,0,0.0*
1,1,0.02375,0.00787,-0.00787*
1,1,0.02375,-0.00787,-0.00787*
1,1,0.02375,-0.00787,0.00787*
1,1,0.02375,0.00787,0.00787*
%
%ADD32ROUNDEDRECTD32*%
%ADD33R,0.03950X0.03950*%
%ADD34C,0.00922*%
%ADD35C,0.00800*%
%ADD36C,0.06706*%
%ADD37R,0.06706X0.06706*%
%ADD38C,0.12611*%
%ADD39R,0.06706X0.06706*%
D29*
X120303Y151319D02*
D03*
Y156437D02*
D03*
X41732Y151319D02*
D03*
Y156437D02*
D03*
X54894Y15114D02*
D03*
Y20232D02*
D03*
X35996Y20126D02*
D03*
Y15008D02*
D03*
X45445Y15008D02*
D03*
Y20126D02*
D03*
X127728Y15114D02*
D03*
Y20232D02*
D03*
X108831Y20126D02*
D03*
Y15008D02*
D03*
X118280Y15008D02*
D03*
Y20126D02*
D03*
X54894Y77713D02*
D03*
Y82831D02*
D03*
X35996Y82724D02*
D03*
Y77606D02*
D03*
X45445Y77606D02*
D03*
Y82724D02*
D03*
X127728Y77713D02*
D03*
Y82831D02*
D03*
X108831Y82724D02*
D03*
Y77606D02*
D03*
X118280Y77606D02*
D03*
Y82724D02*
D03*
X186051Y25728D02*
D03*
Y30847D02*
D03*
Y72973D02*
D03*
Y78091D02*
D03*
Y120217D02*
D03*
Y125335D02*
D03*
D30*
X102303Y156437D02*
D03*
Y151319D02*
D03*
X111303Y156437D02*
D03*
Y151319D02*
D03*
X23732Y156437D02*
D03*
Y151319D02*
D03*
X32732Y156437D02*
D03*
Y151319D02*
D03*
X168051Y30847D02*
D03*
Y25728D02*
D03*
X177051Y30847D02*
D03*
Y25728D02*
D03*
X168051Y78091D02*
D03*
Y72973D02*
D03*
X177051Y78091D02*
D03*
Y72973D02*
D03*
X168051Y125335D02*
D03*
Y120217D02*
D03*
X177051Y125335D02*
D03*
Y120217D02*
D03*
D31*
X61193Y32651D02*
D03*
Y27533D02*
D03*
X134028Y32651D02*
D03*
Y27533D02*
D03*
X61193Y95249D02*
D03*
Y90131D02*
D03*
X134028Y95249D02*
D03*
Y90131D02*
D03*
D32*
X35602Y42764D02*
D03*
X108437D02*
D03*
X35602Y105362D02*
D03*
X108437D02*
D03*
D33*
X41508Y42764D02*
D03*
X114342D02*
D03*
X41508Y105362D02*
D03*
X114342D02*
D03*
D34*
X174213Y138189D02*
D03*
X170275D02*
D03*
X162401D02*
D03*
X166339D02*
D03*
Y140945D02*
D03*
X162401D02*
D03*
X170275D02*
D03*
X174213D02*
D03*
X127165Y152165D02*
D03*
Y148228D02*
D03*
Y140354D02*
D03*
Y144291D02*
D03*
X129921D02*
D03*
Y140354D02*
D03*
Y148228D02*
D03*
Y152165D02*
D03*
X75591Y151772D02*
D03*
Y147835D02*
D03*
Y139961D02*
D03*
Y143898D02*
D03*
X78347D02*
D03*
Y139961D02*
D03*
Y147835D02*
D03*
Y151772D02*
D03*
X50984Y151772D02*
D03*
Y147835D02*
D03*
Y139961D02*
D03*
Y143898D02*
D03*
X48228D02*
D03*
Y139961D02*
D03*
Y147835D02*
D03*
Y151772D02*
D03*
X141929Y84818D02*
D03*
Y80881D02*
D03*
Y88755D02*
D03*
Y92692D02*
D03*
X174213Y90748D02*
D03*
X170275D02*
D03*
X162401D02*
D03*
X166339D02*
D03*
Y93504D02*
D03*
X162401D02*
D03*
X170275D02*
D03*
X174213D02*
D03*
X69488Y84818D02*
D03*
Y80881D02*
D03*
Y88755D02*
D03*
Y92692D02*
D03*
X36811Y125763D02*
D03*
X32874D02*
D03*
X25000D02*
D03*
X28937D02*
D03*
Y123007D02*
D03*
X25000D02*
D03*
X32874D02*
D03*
X36811D02*
D03*
X144685Y92692D02*
D03*
Y88755D02*
D03*
Y80881D02*
D03*
Y84818D02*
D03*
X109252Y125763D02*
D03*
X105315D02*
D03*
X97441D02*
D03*
X101378D02*
D03*
Y123007D02*
D03*
X97441D02*
D03*
X105315D02*
D03*
X109252D02*
D03*
X72244Y92692D02*
D03*
Y88755D02*
D03*
Y80881D02*
D03*
Y84818D02*
D03*
Y21654D02*
D03*
Y17717D02*
D03*
Y25591D02*
D03*
Y29528D02*
D03*
X174213Y46260D02*
D03*
X170275D02*
D03*
X162401D02*
D03*
X166339D02*
D03*
Y43504D02*
D03*
X162401D02*
D03*
X170275D02*
D03*
X174213D02*
D03*
X109252Y59842D02*
D03*
X105315D02*
D03*
X97441D02*
D03*
X101378D02*
D03*
Y62598D02*
D03*
X97441D02*
D03*
X105315D02*
D03*
X109252D02*
D03*
X141929Y29528D02*
D03*
Y25591D02*
D03*
Y17717D02*
D03*
Y21654D02*
D03*
X144685D02*
D03*
Y17717D02*
D03*
Y25591D02*
D03*
Y29528D02*
D03*
X36811Y59842D02*
D03*
X32874D02*
D03*
X25000D02*
D03*
X28937D02*
D03*
Y62598D02*
D03*
X25000D02*
D03*
X32874D02*
D03*
X36811D02*
D03*
X69488Y29528D02*
D03*
Y25591D02*
D03*
Y17717D02*
D03*
Y21654D02*
D03*
D35*
X178149Y138189D02*
D03*
Y140945D02*
D03*
X127165Y156102D02*
D03*
X129921D02*
D03*
X75591Y155709D02*
D03*
X78347D02*
D03*
X50984Y155709D02*
D03*
X48228D02*
D03*
X141929Y96629D02*
D03*
X178149Y90748D02*
D03*
Y93504D02*
D03*
X69488Y96629D02*
D03*
X40748Y125763D02*
D03*
Y123007D02*
D03*
X144685Y96629D02*
D03*
X113189Y125763D02*
D03*
Y123007D02*
D03*
X72244Y96629D02*
D03*
Y33465D02*
D03*
X178149Y46260D02*
D03*
Y43504D02*
D03*
X113189Y59842D02*
D03*
Y62598D02*
D03*
X141929Y33465D02*
D03*
X144685D02*
D03*
X40748Y59842D02*
D03*
Y62598D02*
D03*
X69488Y33465D02*
D03*
D36*
X113925Y138878D02*
D03*
X98177D02*
D03*
X106051D02*
D03*
X35354D02*
D03*
X19606D02*
D03*
X27480D02*
D03*
X13555Y26728D02*
D03*
Y42476D02*
D03*
Y34602D02*
D03*
X34618Y5559D02*
D03*
X52335D02*
D03*
Y31150D02*
D03*
X86390Y26728D02*
D03*
Y42476D02*
D03*
Y34602D02*
D03*
X107453Y5559D02*
D03*
X125169D02*
D03*
Y31150D02*
D03*
X13555Y89327D02*
D03*
Y105075D02*
D03*
Y97201D02*
D03*
X34618Y68158D02*
D03*
X52335D02*
D03*
Y93748D02*
D03*
X86390Y89327D02*
D03*
Y105075D02*
D03*
Y97201D02*
D03*
X107453Y68158D02*
D03*
X125169D02*
D03*
Y93748D02*
D03*
X179673Y13287D02*
D03*
X163925D02*
D03*
X171799D02*
D03*
X179673Y60532D02*
D03*
X163925D02*
D03*
X171799D02*
D03*
X179673Y107776D02*
D03*
X163925D02*
D03*
X171799D02*
D03*
D37*
X90303Y138878D02*
D03*
X11732D02*
D03*
X156051Y13287D02*
D03*
Y60532D02*
D03*
Y107776D02*
D03*
D38*
X88803Y157378D02*
D03*
X10232D02*
D03*
X59618Y44339D02*
D03*
X14343Y8118D02*
D03*
X132453Y44339D02*
D03*
X87177Y8118D02*
D03*
X59618Y106937D02*
D03*
X14343Y70717D02*
D03*
X132453Y106937D02*
D03*
X87177Y70717D02*
D03*
X154551Y31787D02*
D03*
Y79031D02*
D03*
Y126276D02*
D03*
D39*
X13555Y50350D02*
D03*
X34618Y31150D02*
D03*
X86390Y50350D02*
D03*
X107453Y31150D02*
D03*
X13555Y112949D02*
D03*
X34618Y93748D02*
D03*
X86390Y112949D02*
D03*
X107453Y93748D02*
D03*
M02*
