G04*
G04 #@! TF.GenerationSoftware,Altium Limited,Altium Designer,20.1.8 (145)*
G04*
G04 Layer_Color=8421504*
%FSLAX25Y25*%
%MOIN*%
G70*
G04*
G04 #@! TF.SameCoordinates,4EEE358A-EBC4-4D44-B4B5-89C592D5BD6F*
G04*
G04*
G04 #@! TF.FilePolarity,Positive*
G04*
G01*
G75*
%ADD10R,0.03740X0.01968*%
%ADD11R,0.03543X0.01968*%
G04:AMPARAMS|DCode=13|XSize=19.68mil|YSize=37.4mil|CornerRadius=4.92mil|HoleSize=0mil|Usage=FLASHONLY|Rotation=270.000|XOffset=0mil|YOffset=0mil|HoleType=Round|Shape=RoundedRectangle|*
%AMROUNDEDRECTD13*
21,1,0.01968,0.02756,0,0,270.0*
21,1,0.00984,0.03740,0,0,270.0*
1,1,0.00984,-0.01378,-0.00492*
1,1,0.00984,-0.01378,0.00492*
1,1,0.00984,0.01378,0.00492*
1,1,0.00984,0.01378,-0.00492*
%
%ADD13ROUNDEDRECTD13*%
G04:AMPARAMS|DCode=14|XSize=31.5mil|YSize=31.5mil|CornerRadius=7.87mil|HoleSize=0mil|Usage=FLASHONLY|Rotation=0.000|XOffset=0mil|YOffset=0mil|HoleType=Round|Shape=RoundedRectangle|*
%AMROUNDEDRECTD14*
21,1,0.03150,0.01575,0,0,0.0*
21,1,0.01575,0.03150,0,0,0.0*
1,1,0.01575,0.00787,-0.00787*
1,1,0.01575,-0.00787,-0.00787*
1,1,0.01575,-0.00787,0.00787*
1,1,0.01575,0.00787,0.00787*
%
%ADD14ROUNDEDRECTD14*%
%ADD15R,0.03150X0.03150*%
D10*
X120303Y151319D02*
D03*
Y156437D02*
D03*
X41732Y151319D02*
D03*
Y156437D02*
D03*
X54894Y15114D02*
D03*
Y20232D02*
D03*
X35996Y20126D02*
D03*
Y15008D02*
D03*
X45445Y15008D02*
D03*
Y20126D02*
D03*
X127728Y15114D02*
D03*
Y20232D02*
D03*
X108831Y20126D02*
D03*
Y15008D02*
D03*
X118280Y15008D02*
D03*
Y20126D02*
D03*
X54894Y77713D02*
D03*
Y82831D02*
D03*
X35996Y82724D02*
D03*
Y77606D02*
D03*
X45445Y77606D02*
D03*
Y82724D02*
D03*
X127728Y77713D02*
D03*
Y82831D02*
D03*
X108831Y82724D02*
D03*
Y77606D02*
D03*
X118280Y77606D02*
D03*
Y82724D02*
D03*
X186051Y25728D02*
D03*
Y30847D02*
D03*
Y72973D02*
D03*
Y78091D02*
D03*
Y120217D02*
D03*
Y125335D02*
D03*
D11*
X102303Y156437D02*
D03*
Y151319D02*
D03*
X111303Y156437D02*
D03*
Y151319D02*
D03*
X23732Y156437D02*
D03*
Y151319D02*
D03*
X32732Y156437D02*
D03*
Y151319D02*
D03*
X168051Y30847D02*
D03*
Y25728D02*
D03*
X177051Y30847D02*
D03*
Y25728D02*
D03*
X168051Y78091D02*
D03*
Y72973D02*
D03*
X177051Y78091D02*
D03*
Y72973D02*
D03*
X168051Y125335D02*
D03*
Y120217D02*
D03*
X177051Y125335D02*
D03*
Y120217D02*
D03*
D13*
X61193Y32651D02*
D03*
Y27533D02*
D03*
X134028Y32651D02*
D03*
Y27533D02*
D03*
X61193Y95249D02*
D03*
Y90131D02*
D03*
X134028Y95249D02*
D03*
Y90131D02*
D03*
D14*
X35602Y42764D02*
D03*
X108437D02*
D03*
X35602Y105362D02*
D03*
X108437D02*
D03*
D15*
X41508Y42764D02*
D03*
X114342D02*
D03*
X41508Y105362D02*
D03*
X114342D02*
D03*
M02*
