G04*
G04 #@! TF.GenerationSoftware,Altium Limited,Altium Designer,20.1.8 (145)*
G04*
G04 Layer_Color=32896*
%FSLAX25Y25*%
%MOIN*%
G70*
G04*
G04 #@! TF.SameCoordinates,4EEE358A-EBC4-4D44-B4B5-89C592D5BD6F*
G04*
G04*
G04 #@! TF.FilePolarity,Positive*
G04*
G01*
G75*
%ADD12C,0.01000*%
%ADD26C,0.00787*%
%ADD28R,0.01181X0.07480*%
%ADD42C,0.00984*%
%ADD43C,0.00394*%
G36*
X57661Y155831D02*
X57576D01*
Y155789D01*
X57534D01*
Y155747D01*
X57449D01*
Y155704D01*
X57407D01*
Y155662D01*
X57322D01*
Y155620D01*
X57238D01*
Y155578D01*
X57196D01*
Y155535D01*
X57111D01*
Y155493D01*
X57027D01*
Y155451D01*
X56984D01*
Y155409D01*
X56900D01*
Y155367D01*
X56815D01*
Y155324D01*
X56773D01*
Y155282D01*
X56689D01*
Y155240D01*
X56604D01*
Y155197D01*
X56562D01*
Y155155D01*
X56477D01*
Y155113D01*
X56435D01*
Y155071D01*
X56350D01*
Y155028D01*
X56266D01*
Y154944D01*
X56350D01*
Y154902D01*
X56393D01*
Y154859D01*
X56477D01*
Y154817D01*
X56520D01*
Y154775D01*
X56604D01*
Y154733D01*
X56689D01*
Y154690D01*
X56731D01*
Y154648D01*
X56815D01*
Y154606D01*
X56900D01*
Y154564D01*
X56942D01*
Y154521D01*
X57027D01*
Y154479D01*
X57111D01*
Y154437D01*
X57153D01*
Y154394D01*
X57238D01*
Y154352D01*
X57280D01*
Y154310D01*
X57365D01*
Y154268D01*
X57449D01*
Y154226D01*
X57491D01*
Y154183D01*
X57576D01*
Y154141D01*
X57661D01*
Y153845D01*
X57618D01*
Y153887D01*
X57576D01*
Y153930D01*
X57491D01*
Y153972D01*
X57449D01*
Y154014D01*
X57365D01*
Y154057D01*
X57280D01*
Y154099D01*
X57238D01*
Y154141D01*
X57153D01*
Y154183D01*
X57069D01*
Y154226D01*
X57027D01*
Y154268D01*
X56942D01*
Y154310D01*
X56858D01*
Y154352D01*
X56815D01*
Y154394D01*
X56731D01*
Y154437D01*
X56689D01*
Y154479D01*
X56604D01*
Y154521D01*
X56520D01*
Y154564D01*
X56477D01*
Y154606D01*
X56393D01*
Y154648D01*
X56308D01*
Y154690D01*
X56266D01*
Y154733D01*
X56182D01*
Y154775D01*
X56097D01*
Y154817D01*
X56055D01*
Y154859D01*
X55167D01*
Y155071D01*
X56012D01*
Y155113D01*
X56097D01*
Y155155D01*
X56182D01*
Y155197D01*
X56224D01*
Y155240D01*
X56308D01*
Y155282D01*
X56393D01*
Y155324D01*
X56435D01*
Y155367D01*
X56520D01*
Y155409D01*
X56562D01*
Y155451D01*
X56646D01*
Y155493D01*
X56731D01*
Y155535D01*
X56773D01*
Y155578D01*
X56858D01*
Y155620D01*
X56942D01*
Y155662D01*
X56984D01*
Y155704D01*
X57069D01*
Y155747D01*
X57153D01*
Y155789D01*
X57196D01*
Y155831D01*
X57280D01*
Y155874D01*
X57322D01*
Y155916D01*
X57407D01*
Y155958D01*
X57491D01*
Y156000D01*
X57534D01*
Y156043D01*
X57618D01*
Y156085D01*
X57661D01*
Y155831D01*
D02*
G37*
G36*
Y151986D02*
X55167D01*
Y152239D01*
X56224D01*
Y153507D01*
X56435D01*
Y152239D01*
X57449D01*
Y153676D01*
X57661D01*
Y151986D01*
D02*
G37*
G36*
Y150929D02*
X55674D01*
Y150845D01*
X55717D01*
Y150803D01*
X55759D01*
Y150760D01*
X55801D01*
Y150718D01*
X55886D01*
Y150676D01*
X55928D01*
Y150634D01*
X55970D01*
Y150591D01*
X56012D01*
Y150549D01*
X56097D01*
Y150507D01*
X56139D01*
Y150465D01*
X56182D01*
Y150422D01*
X56224D01*
Y150380D01*
X56308D01*
Y150338D01*
X56350D01*
Y150295D01*
X56393D01*
Y150253D01*
X56435D01*
Y150211D01*
X56520D01*
Y150169D01*
X56562D01*
Y150127D01*
X56604D01*
Y150084D01*
X56689D01*
Y150042D01*
X56731D01*
Y150000D01*
X56773D01*
Y149958D01*
X56815D01*
Y149915D01*
X56900D01*
Y149873D01*
X56942D01*
Y149831D01*
X56984D01*
Y149788D01*
X57027D01*
Y149746D01*
X57111D01*
Y149704D01*
X57153D01*
Y149662D01*
X57196D01*
Y149619D01*
X57238D01*
Y149577D01*
X57322D01*
Y149535D01*
X57365D01*
Y149493D01*
X57407D01*
Y149450D01*
X57449D01*
Y149408D01*
X57534D01*
Y149366D01*
X57576D01*
Y149324D01*
X57618D01*
Y149281D01*
X57661D01*
Y149070D01*
X55167D01*
Y149324D01*
X57196D01*
Y149366D01*
X57153D01*
Y149408D01*
X57069D01*
Y149450D01*
X57027D01*
Y149493D01*
X56984D01*
Y149535D01*
X56942D01*
Y149577D01*
X56858D01*
Y149619D01*
X56815D01*
Y149662D01*
X56773D01*
Y149704D01*
X56689D01*
Y149746D01*
X56646D01*
Y149788D01*
X56604D01*
Y149831D01*
X56562D01*
Y149873D01*
X56477D01*
Y149915D01*
X56435D01*
Y149958D01*
X56393D01*
Y150000D01*
X56350D01*
Y150042D01*
X56266D01*
Y150084D01*
X56224D01*
Y150127D01*
X56182D01*
Y150169D01*
X56139D01*
Y150211D01*
X56055D01*
Y150253D01*
X56012D01*
Y150295D01*
X55970D01*
Y150338D01*
X55928D01*
Y150380D01*
X55843D01*
Y150422D01*
X55801D01*
Y150465D01*
X55759D01*
Y150507D01*
X55674D01*
Y150549D01*
X55632D01*
Y150591D01*
X55590D01*
Y150634D01*
X55548D01*
Y150676D01*
X55463D01*
Y150718D01*
X55421D01*
Y150760D01*
X55379D01*
Y150803D01*
X55336D01*
Y150845D01*
X55252D01*
Y150887D01*
X55210D01*
Y150929D01*
X55167D01*
Y151141D01*
X57661D01*
Y150929D01*
D02*
G37*
G36*
Y148014D02*
X55167D01*
Y148225D01*
X57661D01*
Y148014D01*
D02*
G37*
G36*
Y146915D02*
X55632D01*
Y146873D01*
X55674D01*
Y146830D01*
X55717D01*
Y146788D01*
X55801D01*
Y146746D01*
X55843D01*
Y146704D01*
X55886D01*
Y146661D01*
X55970D01*
Y146619D01*
X56012D01*
Y146577D01*
X56055D01*
Y146535D01*
X56097D01*
Y146492D01*
X56182D01*
Y146450D01*
X56224D01*
Y146408D01*
X56266D01*
Y146366D01*
X56308D01*
Y146323D01*
X56393D01*
Y146281D01*
X56435D01*
Y146239D01*
X56477D01*
Y146196D01*
X56520D01*
Y146154D01*
X56604D01*
Y146112D01*
X56646D01*
Y146070D01*
X56689D01*
Y146028D01*
X56731D01*
Y145985D01*
X56815D01*
Y145943D01*
X56858D01*
Y145901D01*
X56900D01*
Y145859D01*
X56942D01*
Y145816D01*
X57027D01*
Y145774D01*
X57069D01*
Y145732D01*
X57111D01*
Y145689D01*
X57153D01*
Y145647D01*
X57238D01*
Y145605D01*
X57280D01*
Y145563D01*
X57322D01*
Y145520D01*
X57407D01*
Y145478D01*
X57449D01*
Y145436D01*
X57491D01*
Y145394D01*
X57534D01*
Y145351D01*
X57618D01*
Y145309D01*
X57661D01*
Y145098D01*
X55167D01*
Y145309D01*
X57153D01*
Y145394D01*
X57111D01*
Y145436D01*
X57069D01*
Y145478D01*
X56984D01*
Y145520D01*
X56942D01*
Y145563D01*
X56900D01*
Y145605D01*
X56858D01*
Y145647D01*
X56773D01*
Y145689D01*
X56731D01*
Y145732D01*
X56689D01*
Y145774D01*
X56646D01*
Y145816D01*
X56562D01*
Y145859D01*
X56520D01*
Y145901D01*
X56477D01*
Y145943D01*
X56435D01*
Y145985D01*
X56350D01*
Y146028D01*
X56308D01*
Y146070D01*
X56266D01*
Y146112D01*
X56182D01*
Y146154D01*
X56139D01*
Y146196D01*
X56097D01*
Y146239D01*
X56055D01*
Y146281D01*
X55970D01*
Y146323D01*
X55928D01*
Y146366D01*
X55886D01*
Y146408D01*
X55843D01*
Y146450D01*
X55759D01*
Y146492D01*
X55717D01*
Y146535D01*
X55674D01*
Y146577D01*
X55632D01*
Y146619D01*
X55548D01*
Y146661D01*
X55505D01*
Y146704D01*
X55463D01*
Y146746D01*
X55421D01*
Y146788D01*
X55336D01*
Y146830D01*
X55294D01*
Y146873D01*
X55252D01*
Y146915D01*
X55210D01*
Y146957D01*
X55167D01*
Y147169D01*
X57661D01*
Y146915D01*
D02*
G37*
G36*
X65921Y162789D02*
X66302D01*
Y162746D01*
X66555D01*
Y162704D01*
X66766D01*
Y162662D01*
X66978D01*
Y162620D01*
X67147D01*
Y162577D01*
X67273D01*
Y162535D01*
X67400D01*
Y162493D01*
X67527D01*
Y162451D01*
X67654D01*
Y162408D01*
X67781D01*
Y162366D01*
X67865D01*
Y162324D01*
X67992D01*
Y162282D01*
X68076D01*
Y162239D01*
X68161D01*
Y162197D01*
X68246D01*
Y162155D01*
X68372D01*
Y162112D01*
X68414D01*
Y162070D01*
X68499D01*
Y162028D01*
X68584D01*
Y161986D01*
X68668D01*
Y161943D01*
X68753D01*
Y161901D01*
X68795D01*
Y161859D01*
X68879D01*
Y161817D01*
X68922D01*
Y161774D01*
X69006D01*
Y161732D01*
X69091D01*
Y161690D01*
X69133D01*
Y161648D01*
X69175D01*
Y161605D01*
X69260D01*
Y161563D01*
X69302D01*
Y161521D01*
X69344D01*
Y161479D01*
X69429D01*
Y161436D01*
X69471D01*
Y161394D01*
X69513D01*
Y161352D01*
X69555D01*
Y161310D01*
X69640D01*
Y161267D01*
X69682D01*
Y161225D01*
X69725D01*
Y161183D01*
X69767D01*
Y161141D01*
X69809D01*
Y161098D01*
X69851D01*
Y161056D01*
X69893D01*
Y161014D01*
X69936D01*
Y160971D01*
X69978D01*
Y160929D01*
X70020D01*
Y160887D01*
X70063D01*
Y160845D01*
X70105D01*
Y160802D01*
X70147D01*
Y160760D01*
X70189D01*
Y160718D01*
X70232D01*
Y160676D01*
X70274D01*
Y160633D01*
X70316D01*
Y160591D01*
X70358D01*
Y160507D01*
X70401D01*
Y160464D01*
X70443D01*
Y160422D01*
X70485D01*
Y160380D01*
X70527D01*
Y160295D01*
X70570D01*
Y160253D01*
X70612D01*
Y160211D01*
X70654D01*
Y160126D01*
X70696D01*
Y160084D01*
X70739D01*
Y160000D01*
X70781D01*
Y159957D01*
X70823D01*
Y159873D01*
X70865D01*
Y159831D01*
X70908D01*
Y159746D01*
X70950D01*
Y159661D01*
X70992D01*
Y159619D01*
X71034D01*
Y159535D01*
X71077D01*
Y159450D01*
X71119D01*
Y159366D01*
X71161D01*
Y159281D01*
X71204D01*
Y159197D01*
X71246D01*
Y159112D01*
X71288D01*
Y158985D01*
X71330D01*
Y158901D01*
X71372D01*
Y158774D01*
X71415D01*
Y158690D01*
X71457D01*
Y158563D01*
X71499D01*
Y158436D01*
X71542D01*
Y158309D01*
X71584D01*
Y158140D01*
X71626D01*
Y157971D01*
X71668D01*
Y157802D01*
X71711D01*
Y157549D01*
X71753D01*
Y157295D01*
X71795D01*
Y156872D01*
X71837D01*
Y155816D01*
X71795D01*
Y155394D01*
X71753D01*
Y155098D01*
X71711D01*
Y154886D01*
X71668D01*
Y154675D01*
X71626D01*
Y154506D01*
X71584D01*
Y154337D01*
X71542D01*
Y154210D01*
X71499D01*
Y154084D01*
X71457D01*
Y153957D01*
X71415D01*
Y153830D01*
X71372D01*
Y153703D01*
X71330D01*
Y153576D01*
X71288D01*
Y153492D01*
X71246D01*
Y153365D01*
X71204D01*
Y153281D01*
X71161D01*
Y153154D01*
X71119D01*
Y153069D01*
X71077D01*
Y152985D01*
X71034D01*
Y152900D01*
X70992D01*
Y152816D01*
X70950D01*
Y152731D01*
X70908D01*
Y152647D01*
X70865D01*
Y152562D01*
X70823D01*
Y152478D01*
X70781D01*
Y152393D01*
X70739D01*
Y152309D01*
X70696D01*
Y152266D01*
X70654D01*
Y152182D01*
X70612D01*
Y152097D01*
X70570D01*
Y152055D01*
X70527D01*
Y151971D01*
X70485D01*
Y151886D01*
X70443D01*
Y151844D01*
X70401D01*
Y151759D01*
X70358D01*
Y151717D01*
X70316D01*
Y151632D01*
X70274D01*
Y151590D01*
X70232D01*
Y151506D01*
X70189D01*
Y151463D01*
X70147D01*
Y151379D01*
X70105D01*
Y151337D01*
X70063D01*
Y151252D01*
X70020D01*
Y151210D01*
X69978D01*
Y151168D01*
X69936D01*
Y151083D01*
X69893D01*
Y151041D01*
X69851D01*
Y150999D01*
X69809D01*
Y150914D01*
X69767D01*
Y150872D01*
X69725D01*
Y150830D01*
X69682D01*
Y150745D01*
X69640D01*
Y150703D01*
X69598D01*
Y150661D01*
X69555D01*
Y150618D01*
X69513D01*
Y150534D01*
X69471D01*
Y150492D01*
X69429D01*
Y150449D01*
X69386D01*
Y150407D01*
X69344D01*
Y150323D01*
X69302D01*
Y150280D01*
X69260D01*
Y150238D01*
X69217D01*
Y150196D01*
X69175D01*
Y150154D01*
X69133D01*
Y150111D01*
X69091D01*
Y150027D01*
X69048D01*
Y149985D01*
X69006D01*
Y149942D01*
X68964D01*
Y149900D01*
X68922D01*
Y149858D01*
X68879D01*
Y149815D01*
X68837D01*
Y149773D01*
X68795D01*
Y149689D01*
X68753D01*
Y149646D01*
X68710D01*
Y149604D01*
X68668D01*
Y149562D01*
X68626D01*
Y149520D01*
X68584D01*
Y149477D01*
X68541D01*
Y149435D01*
X68499D01*
Y149393D01*
X68457D01*
Y149351D01*
X68414D01*
Y149308D01*
X68372D01*
Y149266D01*
X68330D01*
Y149182D01*
X68288D01*
Y149139D01*
X68246D01*
Y149097D01*
X68203D01*
Y149055D01*
X68161D01*
Y149013D01*
X68119D01*
Y148970D01*
X68076D01*
Y148928D01*
X68034D01*
Y148886D01*
X67992D01*
Y148844D01*
X67950D01*
Y148801D01*
X67907D01*
Y148759D01*
X67865D01*
Y148717D01*
X67823D01*
Y148674D01*
X67781D01*
Y148632D01*
X67738D01*
Y148590D01*
X67696D01*
Y148548D01*
X67654D01*
Y148505D01*
X67612D01*
Y148463D01*
X67569D01*
Y148421D01*
X67527D01*
Y148379D01*
X67485D01*
Y148336D01*
X67443D01*
Y148294D01*
X67400D01*
Y148252D01*
X67358D01*
Y148210D01*
X67316D01*
Y148167D01*
X67273D01*
Y148125D01*
X67231D01*
Y148083D01*
X67189D01*
Y148041D01*
X67147D01*
Y147998D01*
X67105D01*
Y147956D01*
X67062D01*
Y147914D01*
X67020D01*
Y147872D01*
X66978D01*
Y147829D01*
X66935D01*
Y147787D01*
X66893D01*
Y147745D01*
X66851D01*
Y147703D01*
X66809D01*
Y147660D01*
X66766D01*
Y147618D01*
X66724D01*
Y147576D01*
X66682D01*
Y147534D01*
X66640D01*
Y147491D01*
X66597D01*
Y147407D01*
X66640D01*
Y147364D01*
X66682D01*
Y147322D01*
X66724D01*
Y147280D01*
X66766D01*
Y147238D01*
X66809D01*
Y147195D01*
X66851D01*
Y147153D01*
X66893D01*
Y147111D01*
X66935D01*
Y147069D01*
X66978D01*
Y147027D01*
X67020D01*
Y146984D01*
X67062D01*
Y146942D01*
X67105D01*
Y146900D01*
X67147D01*
Y146857D01*
X67189D01*
Y146815D01*
X67231D01*
Y146731D01*
X67273D01*
Y146688D01*
X67316D01*
Y146646D01*
X67358D01*
Y146604D01*
X67400D01*
Y146562D01*
X67443D01*
Y146519D01*
X67485D01*
Y146477D01*
X67527D01*
Y146435D01*
X67569D01*
Y146393D01*
X67612D01*
Y146350D01*
X67654D01*
Y146308D01*
X67696D01*
Y146266D01*
X67738D01*
Y146181D01*
X67781D01*
Y146139D01*
X67823D01*
Y146097D01*
X67865D01*
Y146054D01*
X67907D01*
Y146012D01*
X67950D01*
Y145970D01*
X67992D01*
Y145928D01*
X68034D01*
Y145886D01*
X68076D01*
Y145843D01*
X68119D01*
Y145801D01*
X68161D01*
Y145717D01*
X68203D01*
Y145674D01*
X68246D01*
Y145632D01*
X68288D01*
Y145590D01*
X68330D01*
Y145547D01*
X68372D01*
Y145505D01*
X68414D01*
Y145463D01*
X68457D01*
Y145421D01*
X68499D01*
Y145336D01*
X68541D01*
Y145294D01*
X68584D01*
Y145252D01*
X68626D01*
Y145209D01*
X68668D01*
Y145167D01*
X68710D01*
Y145125D01*
X68753D01*
Y145083D01*
X68795D01*
Y144998D01*
X68837D01*
Y144956D01*
X68879D01*
Y144914D01*
X68922D01*
Y144871D01*
X68964D01*
Y144829D01*
X69006D01*
Y144787D01*
X69048D01*
Y144702D01*
X69091D01*
Y144660D01*
X69133D01*
Y144618D01*
X69175D01*
Y144576D01*
X69217D01*
Y144533D01*
X69260D01*
Y144449D01*
X69302D01*
Y144406D01*
X69344D01*
Y144364D01*
X69386D01*
Y144322D01*
X69429D01*
Y144237D01*
X69471D01*
Y144195D01*
X69513D01*
Y144153D01*
X69555D01*
Y144111D01*
X69598D01*
Y144026D01*
X69640D01*
Y143984D01*
X69682D01*
Y143942D01*
X69725D01*
Y143857D01*
X69767D01*
Y143815D01*
X69809D01*
Y143773D01*
X69851D01*
Y143688D01*
X69893D01*
Y143646D01*
X69936D01*
Y143604D01*
X69978D01*
Y143519D01*
X70020D01*
Y143477D01*
X70063D01*
Y143435D01*
X69978D01*
Y143477D01*
X69851D01*
Y143519D01*
X69344D01*
Y143477D01*
X69217D01*
Y143435D01*
X69133D01*
Y143392D01*
X69048D01*
Y143350D01*
X68964D01*
Y143308D01*
X68922D01*
Y143265D01*
X68879D01*
Y143223D01*
X68837D01*
Y143181D01*
X68795D01*
Y143139D01*
X68753D01*
Y143054D01*
X68710D01*
Y142970D01*
X68668D01*
Y142885D01*
X68626D01*
Y142758D01*
X68584D01*
Y142547D01*
X68541D01*
Y142589D01*
X68499D01*
Y142674D01*
X68457D01*
Y142716D01*
X68414D01*
Y142758D01*
X68372D01*
Y142843D01*
X68330D01*
Y142885D01*
X68288D01*
Y142928D01*
X68246D01*
Y143012D01*
X68203D01*
Y143054D01*
X68161D01*
Y143096D01*
X68119D01*
Y143139D01*
X68076D01*
Y143223D01*
X68034D01*
Y143265D01*
X67992D01*
Y143308D01*
X67950D01*
Y143350D01*
X67907D01*
Y143435D01*
X67865D01*
Y143477D01*
X67823D01*
Y143519D01*
X67781D01*
Y143561D01*
X67738D01*
Y143604D01*
X67696D01*
Y143646D01*
X67654D01*
Y143730D01*
X67612D01*
Y143773D01*
X67569D01*
Y143815D01*
X67527D01*
Y143857D01*
X67485D01*
Y143899D01*
X67443D01*
Y143942D01*
X67400D01*
Y144026D01*
X67358D01*
Y144068D01*
X67316D01*
Y144111D01*
X67273D01*
Y144153D01*
X67231D01*
Y144195D01*
X67189D01*
Y144237D01*
X67147D01*
Y144280D01*
X67105D01*
Y144364D01*
X67062D01*
Y144406D01*
X67020D01*
Y144449D01*
X66978D01*
Y144491D01*
X66935D01*
Y144533D01*
X66893D01*
Y144576D01*
X66851D01*
Y144618D01*
X66809D01*
Y144660D01*
X66766D01*
Y144745D01*
X66724D01*
Y144787D01*
X66682D01*
Y144829D01*
X66640D01*
Y144871D01*
X66597D01*
Y144914D01*
X66555D01*
Y144956D01*
X66513D01*
Y144998D01*
X66471D01*
Y145040D01*
X66428D01*
Y145083D01*
X66386D01*
Y145125D01*
X66344D01*
Y145167D01*
X66302D01*
Y145252D01*
X66259D01*
Y145294D01*
X66217D01*
Y145336D01*
X66175D01*
Y145378D01*
X66133D01*
Y145421D01*
X66090D01*
Y145463D01*
X66048D01*
Y145505D01*
X66006D01*
Y145547D01*
X65964D01*
Y145590D01*
X65921D01*
Y145632D01*
X65879D01*
Y145674D01*
X65837D01*
Y145717D01*
X65794D01*
Y145759D01*
X65752D01*
Y145843D01*
X65710D01*
Y145886D01*
X65668D01*
Y145928D01*
X65626D01*
Y145970D01*
X65583D01*
Y146012D01*
X65541D01*
Y146054D01*
X65499D01*
Y146097D01*
X65456D01*
Y146139D01*
X65414D01*
Y146181D01*
X65372D01*
Y146224D01*
X65245D01*
Y146181D01*
X65203D01*
Y146139D01*
X65161D01*
Y146097D01*
X65118D01*
Y146054D01*
X65076D01*
Y146012D01*
X65034D01*
Y145970D01*
X64992D01*
Y145928D01*
X64949D01*
Y145886D01*
X64907D01*
Y145843D01*
X64865D01*
Y145801D01*
X64823D01*
Y145759D01*
X64780D01*
Y145717D01*
X64738D01*
Y145674D01*
X64696D01*
Y145632D01*
X64654D01*
Y145590D01*
X64611D01*
Y145547D01*
X64569D01*
Y145505D01*
X64527D01*
Y145463D01*
X64485D01*
Y145421D01*
X64442D01*
Y145378D01*
X64400D01*
Y145336D01*
X64358D01*
Y145294D01*
X64315D01*
Y145252D01*
X64273D01*
Y145209D01*
X64231D01*
Y145167D01*
X64189D01*
Y145125D01*
X64147D01*
Y145083D01*
X64104D01*
Y145040D01*
X64062D01*
Y144998D01*
X64020D01*
Y144956D01*
X63977D01*
Y144914D01*
X63935D01*
Y144871D01*
X63893D01*
Y144829D01*
X63851D01*
Y144787D01*
X63808D01*
Y144745D01*
X63766D01*
Y144702D01*
X63724D01*
Y144660D01*
X63682D01*
Y144618D01*
X63639D01*
Y144576D01*
X63597D01*
Y144533D01*
X63555D01*
Y144491D01*
X63513D01*
Y144449D01*
X63470D01*
Y144406D01*
X63428D01*
Y144364D01*
X63386D01*
Y144322D01*
X63344D01*
Y144280D01*
X63301D01*
Y144237D01*
X63259D01*
Y144195D01*
X63217D01*
Y144111D01*
X63174D01*
Y144068D01*
X63132D01*
Y144026D01*
X63090D01*
Y143984D01*
X63048D01*
Y143942D01*
X63006D01*
Y143899D01*
X62963D01*
Y143857D01*
X62921D01*
Y143815D01*
X62879D01*
Y143773D01*
X62836D01*
Y143688D01*
X62794D01*
Y143646D01*
X62752D01*
Y143604D01*
X62710D01*
Y143561D01*
X62667D01*
Y143519D01*
X62625D01*
Y143477D01*
X62583D01*
Y143392D01*
X62541D01*
Y143350D01*
X62498D01*
Y143308D01*
X62456D01*
Y143265D01*
X62414D01*
Y143181D01*
X60428D01*
Y143139D01*
X60301D01*
Y143096D01*
X60216D01*
Y143139D01*
X60259D01*
Y143223D01*
X60301D01*
Y143308D01*
X60343D01*
Y143350D01*
X60386D01*
Y143435D01*
X60428D01*
Y143477D01*
X60470D01*
Y143561D01*
X60512D01*
Y143604D01*
X60554D01*
Y143688D01*
X60597D01*
Y143730D01*
X60639D01*
Y143815D01*
X60681D01*
Y143857D01*
X60724D01*
Y143899D01*
X60766D01*
Y143984D01*
X60808D01*
Y144026D01*
X60850D01*
Y144068D01*
X60893D01*
Y144153D01*
X60935D01*
Y144195D01*
X60977D01*
Y144237D01*
X61019D01*
Y144280D01*
X61062D01*
Y144364D01*
X61104D01*
Y144406D01*
X61146D01*
Y144449D01*
X61188D01*
Y144491D01*
X61231D01*
Y144576D01*
X61273D01*
Y144618D01*
X61315D01*
Y144660D01*
X61357D01*
Y144702D01*
X61400D01*
Y144745D01*
X61442D01*
Y144787D01*
X61484D01*
Y144871D01*
X61527D01*
Y144914D01*
X61569D01*
Y144956D01*
X61611D01*
Y144998D01*
X61653D01*
Y145040D01*
X61695D01*
Y145083D01*
X61738D01*
Y145125D01*
X61780D01*
Y145167D01*
X61822D01*
Y145252D01*
X61865D01*
Y145294D01*
X61907D01*
Y145336D01*
X61949D01*
Y145378D01*
X61991D01*
Y145421D01*
X62034D01*
Y145463D01*
X62076D01*
Y145505D01*
X62118D01*
Y145547D01*
X62160D01*
Y145590D01*
X62203D01*
Y145632D01*
X62245D01*
Y145674D01*
X62287D01*
Y145717D01*
X62329D01*
Y145759D01*
X62372D01*
Y145801D01*
X62414D01*
Y145886D01*
X62456D01*
Y145928D01*
X62498D01*
Y145970D01*
X62541D01*
Y146012D01*
X62583D01*
Y146054D01*
X62625D01*
Y146097D01*
X62667D01*
Y146139D01*
X62710D01*
Y146181D01*
X62752D01*
Y146224D01*
X62794D01*
Y146266D01*
X62836D01*
Y146308D01*
X62879D01*
Y146350D01*
X62921D01*
Y146393D01*
X62963D01*
Y146435D01*
X63006D01*
Y146477D01*
X63048D01*
Y146519D01*
X63090D01*
Y146562D01*
X63132D01*
Y146604D01*
X63174D01*
Y146646D01*
X63217D01*
Y146688D01*
X63259D01*
Y146731D01*
X63301D01*
Y146773D01*
X63344D01*
Y146815D01*
X63386D01*
Y146857D01*
X63428D01*
Y146900D01*
X63470D01*
Y146942D01*
X63555D01*
Y146984D01*
X63597D01*
Y147027D01*
X63639D01*
Y147069D01*
X63682D01*
Y147111D01*
X63724D01*
Y147153D01*
X63766D01*
Y147195D01*
X63808D01*
Y147238D01*
X63851D01*
Y147280D01*
X63893D01*
Y147322D01*
X63935D01*
Y147364D01*
X63977D01*
Y147407D01*
X64020D01*
Y147449D01*
X64062D01*
Y147491D01*
X64104D01*
Y147534D01*
X64062D01*
Y147576D01*
X64020D01*
Y147618D01*
X63977D01*
Y147703D01*
X63935D01*
Y147745D01*
X63893D01*
Y147787D01*
X63851D01*
Y147829D01*
X63808D01*
Y147872D01*
X63766D01*
Y147914D01*
X63724D01*
Y147956D01*
X63682D01*
Y147998D01*
X63639D01*
Y148041D01*
X63597D01*
Y148083D01*
X63555D01*
Y148125D01*
X63513D01*
Y148167D01*
X63470D01*
Y148210D01*
X63428D01*
Y148252D01*
X63386D01*
Y148294D01*
X63344D01*
Y148336D01*
X63301D01*
Y148379D01*
X63259D01*
Y148421D01*
X63217D01*
Y148463D01*
X63174D01*
Y148505D01*
X63132D01*
Y148548D01*
X63090D01*
Y148590D01*
X63048D01*
Y148632D01*
X63006D01*
Y148674D01*
X62963D01*
Y148717D01*
X62921D01*
Y148759D01*
X62879D01*
Y148801D01*
X62836D01*
Y148886D01*
X62794D01*
Y148928D01*
X62752D01*
Y148970D01*
X62710D01*
Y149013D01*
X62667D01*
Y149055D01*
X62625D01*
Y149097D01*
X62583D01*
Y149139D01*
X62541D01*
Y149182D01*
X62498D01*
Y149224D01*
X62456D01*
Y149266D01*
X62414D01*
Y149308D01*
X62372D01*
Y149351D01*
X62329D01*
Y149393D01*
X62287D01*
Y149435D01*
X62245D01*
Y149520D01*
X62203D01*
Y149562D01*
X62160D01*
Y149604D01*
X62118D01*
Y149646D01*
X62076D01*
Y149689D01*
X62034D01*
Y149773D01*
X61991D01*
Y149815D01*
X61949D01*
Y149858D01*
X61907D01*
Y149900D01*
X61865D01*
Y149942D01*
X61822D01*
Y150027D01*
X61780D01*
Y150069D01*
X61738D01*
Y150111D01*
X61695D01*
Y150154D01*
X61653D01*
Y150238D01*
X61611D01*
Y150280D01*
X61569D01*
Y150323D01*
X61527D01*
Y150365D01*
X61484D01*
Y150449D01*
X61442D01*
Y150492D01*
X61400D01*
Y150534D01*
X61357D01*
Y150618D01*
X61315D01*
Y150661D01*
X61273D01*
Y150703D01*
X61231D01*
Y150745D01*
X61188D01*
Y150830D01*
X61146D01*
Y150872D01*
X61104D01*
Y150914D01*
X61062D01*
Y150999D01*
X61019D01*
Y151041D01*
X60977D01*
Y151126D01*
X60935D01*
Y151168D01*
X60893D01*
Y151210D01*
X60850D01*
Y151295D01*
X60808D01*
Y151337D01*
X60766D01*
Y151421D01*
X60724D01*
Y151463D01*
X60681D01*
Y151548D01*
X60639D01*
Y151590D01*
X60597D01*
Y151675D01*
X60554D01*
Y151717D01*
X60512D01*
Y151802D01*
X60470D01*
Y151844D01*
X60428D01*
Y151928D01*
X60386D01*
Y151971D01*
X60343D01*
Y152055D01*
X60301D01*
Y152097D01*
X60259D01*
Y152182D01*
X60216D01*
Y152266D01*
X60174D01*
Y152309D01*
X60132D01*
Y152393D01*
X60090D01*
Y152478D01*
X60048D01*
Y152562D01*
X60005D01*
Y152604D01*
X59963D01*
Y152689D01*
X59921D01*
Y152773D01*
X59878D01*
Y152858D01*
X59836D01*
Y152943D01*
X59794D01*
Y153027D01*
X59752D01*
Y153112D01*
X59709D01*
Y153196D01*
X59667D01*
Y153281D01*
X59625D01*
Y153365D01*
X59583D01*
Y153492D01*
X59540D01*
Y153576D01*
X59498D01*
Y153661D01*
X59456D01*
Y153788D01*
X59414D01*
Y153872D01*
X59371D01*
Y153999D01*
X59329D01*
Y154126D01*
X59287D01*
Y154253D01*
X59245D01*
Y154379D01*
X59202D01*
Y154506D01*
X59160D01*
Y154633D01*
X59118D01*
Y154802D01*
X59075D01*
Y154971D01*
X59033D01*
Y155182D01*
X58991D01*
Y155394D01*
X58949D01*
Y155689D01*
X58907D01*
Y156239D01*
X58864D01*
Y156661D01*
X58907D01*
Y157168D01*
X58949D01*
Y157464D01*
X58991D01*
Y157675D01*
X59033D01*
Y157887D01*
X59075D01*
Y158056D01*
X59118D01*
Y158183D01*
X59160D01*
Y158309D01*
X59202D01*
Y158436D01*
X59245D01*
Y158563D01*
X59287D01*
Y158690D01*
X59329D01*
Y158774D01*
X59371D01*
Y158859D01*
X59414D01*
Y158985D01*
X59456D01*
Y159070D01*
X59498D01*
Y159154D01*
X59540D01*
Y159239D01*
X59583D01*
Y159324D01*
X59625D01*
Y159408D01*
X59667D01*
Y159493D01*
X59709D01*
Y159535D01*
X59752D01*
Y159619D01*
X59794D01*
Y159704D01*
X59836D01*
Y159746D01*
X59878D01*
Y159831D01*
X59921D01*
Y159873D01*
X59963D01*
Y159957D01*
X60005D01*
Y160000D01*
X60048D01*
Y160084D01*
X60090D01*
Y160126D01*
X60132D01*
Y160211D01*
X60174D01*
Y160253D01*
X60216D01*
Y160295D01*
X60259D01*
Y160338D01*
X60301D01*
Y160422D01*
X60343D01*
Y160464D01*
X60386D01*
Y160507D01*
X60428D01*
Y160549D01*
X60470D01*
Y160591D01*
X60512D01*
Y160676D01*
X60554D01*
Y160718D01*
X60597D01*
Y160760D01*
X60639D01*
Y160802D01*
X60681D01*
Y160845D01*
X60724D01*
Y160887D01*
X60766D01*
Y160929D01*
X60808D01*
Y160971D01*
X60850D01*
Y161014D01*
X60893D01*
Y161056D01*
X60935D01*
Y161098D01*
X60977D01*
Y161141D01*
X61019D01*
Y161183D01*
X61104D01*
Y161225D01*
X61146D01*
Y161267D01*
X61188D01*
Y161310D01*
X61231D01*
Y161352D01*
X61273D01*
Y161394D01*
X61357D01*
Y161436D01*
X61400D01*
Y161479D01*
X61442D01*
Y161521D01*
X61484D01*
Y161563D01*
X61569D01*
Y161605D01*
X61611D01*
Y161648D01*
X61695D01*
Y161690D01*
X61738D01*
Y161732D01*
X61822D01*
Y161774D01*
X61865D01*
Y161817D01*
X61949D01*
Y161859D01*
X61991D01*
Y161901D01*
X62076D01*
Y161943D01*
X62160D01*
Y161986D01*
X62203D01*
Y162028D01*
X62287D01*
Y162070D01*
X62372D01*
Y162112D01*
X62456D01*
Y162155D01*
X62541D01*
Y162197D01*
X62625D01*
Y162239D01*
X62710D01*
Y162282D01*
X62836D01*
Y162324D01*
X62921D01*
Y162366D01*
X63048D01*
Y162408D01*
X63174D01*
Y162451D01*
X63259D01*
Y162493D01*
X63386D01*
Y162535D01*
X63555D01*
Y162577D01*
X63682D01*
Y162620D01*
X63851D01*
Y162662D01*
X64020D01*
Y162704D01*
X64273D01*
Y162746D01*
X64527D01*
Y162789D01*
X64907D01*
Y162831D01*
X65921D01*
Y162789D01*
D02*
G37*
G36*
X55379Y142943D02*
X56308D01*
Y142985D01*
X56350D01*
Y144210D01*
X56520D01*
Y142943D01*
X57449D01*
Y144379D01*
X57661D01*
Y142689D01*
X55167D01*
Y144422D01*
X55379D01*
Y142943D01*
D02*
G37*
G36*
X57365Y141886D02*
X57407D01*
Y141844D01*
X57449D01*
Y141760D01*
X57491D01*
Y141675D01*
X57534D01*
Y141590D01*
X57576D01*
Y141506D01*
X57618D01*
Y141337D01*
X57661D01*
Y140703D01*
X57618D01*
Y140534D01*
X57576D01*
Y140450D01*
X57534D01*
Y140365D01*
X57491D01*
Y140280D01*
X57449D01*
Y140196D01*
X57407D01*
Y140154D01*
X57365D01*
Y140111D01*
X57322D01*
Y140069D01*
X57280D01*
Y140027D01*
X57238D01*
Y139985D01*
X57196D01*
Y139942D01*
X57111D01*
Y139900D01*
X57069D01*
Y139858D01*
X56984D01*
Y139816D01*
X56900D01*
Y139773D01*
X56773D01*
Y139731D01*
X56055D01*
Y139773D01*
X55928D01*
Y139816D01*
X55843D01*
Y139858D01*
X55759D01*
Y139900D01*
X55674D01*
Y139942D01*
X55632D01*
Y139985D01*
X55590D01*
Y140027D01*
X55548D01*
Y140069D01*
X55505D01*
Y140111D01*
X55463D01*
Y140154D01*
X55421D01*
Y140196D01*
X55379D01*
Y140280D01*
X55336D01*
Y140323D01*
X55294D01*
Y140407D01*
X55252D01*
Y140534D01*
X55210D01*
Y140661D01*
X55167D01*
Y141379D01*
X55210D01*
Y141548D01*
X55252D01*
Y141633D01*
X55294D01*
Y141717D01*
X55336D01*
Y141802D01*
X55379D01*
Y141844D01*
X55421D01*
Y141929D01*
X56393D01*
Y141717D01*
X55590D01*
Y141675D01*
X55548D01*
Y141633D01*
X55505D01*
Y141590D01*
X55463D01*
Y141464D01*
X55421D01*
Y141337D01*
X55379D01*
Y141083D01*
X55336D01*
Y140957D01*
X55379D01*
Y140703D01*
X55421D01*
Y140576D01*
X55463D01*
Y140492D01*
X55505D01*
Y140407D01*
X55548D01*
Y140365D01*
X55590D01*
Y140323D01*
X55632D01*
Y140280D01*
X55674D01*
Y140238D01*
X55717D01*
Y140196D01*
X55759D01*
Y140154D01*
X55801D01*
Y140111D01*
X55886D01*
Y140069D01*
X55928D01*
Y140027D01*
X56055D01*
Y139985D01*
X56182D01*
Y139942D01*
X56604D01*
Y139985D01*
X56773D01*
Y140027D01*
X56858D01*
Y140069D01*
X56942D01*
Y140111D01*
X57027D01*
Y140154D01*
X57069D01*
Y140196D01*
X57111D01*
Y140238D01*
X57153D01*
Y140280D01*
X57196D01*
Y140323D01*
X57238D01*
Y140365D01*
X57280D01*
Y140450D01*
X57322D01*
Y140492D01*
X57365D01*
Y140619D01*
X57407D01*
Y140745D01*
X57449D01*
Y141337D01*
X57407D01*
Y141464D01*
X57365D01*
Y141548D01*
X57322D01*
Y141633D01*
X57280D01*
Y141675D01*
X57238D01*
Y141717D01*
X57196D01*
Y141844D01*
X57238D01*
Y141886D01*
X57280D01*
Y141929D01*
X57365D01*
Y141886D01*
D02*
G37*
G36*
X69682Y143350D02*
X69851D01*
Y143308D01*
X69978D01*
Y143265D01*
X70063D01*
Y143223D01*
X70105D01*
Y143181D01*
X70147D01*
Y143139D01*
X70189D01*
Y143096D01*
X70232D01*
Y143054D01*
X70274D01*
Y143012D01*
X70316D01*
Y142970D01*
X70358D01*
Y142885D01*
X70401D01*
Y142801D01*
X70443D01*
Y142758D01*
X70485D01*
Y142674D01*
X70527D01*
Y142589D01*
X70570D01*
Y142547D01*
X70612D01*
Y142463D01*
X70654D01*
Y142378D01*
X70696D01*
Y142294D01*
X70739D01*
Y142209D01*
X70781D01*
Y142125D01*
X70823D01*
Y142040D01*
X70865D01*
Y141955D01*
X70908D01*
Y141871D01*
X70950D01*
Y141787D01*
X70992D01*
Y141702D01*
X71034D01*
Y141618D01*
X71077D01*
Y141533D01*
X71119D01*
Y141448D01*
X71161D01*
Y141322D01*
X71204D01*
Y141237D01*
X71246D01*
Y141110D01*
X71288D01*
Y141026D01*
X71330D01*
Y140899D01*
X71372D01*
Y140772D01*
X71415D01*
Y140646D01*
X71457D01*
Y140519D01*
X71499D01*
Y140350D01*
X71542D01*
Y140223D01*
X71584D01*
Y140054D01*
X71626D01*
Y139843D01*
X71668D01*
Y139631D01*
X71711D01*
Y139378D01*
X71753D01*
Y138955D01*
X71795D01*
Y138152D01*
X71753D01*
Y137772D01*
X71711D01*
Y137476D01*
X71668D01*
Y137265D01*
X71626D01*
Y137096D01*
X71584D01*
Y136927D01*
X71542D01*
Y136800D01*
X71499D01*
Y136673D01*
X71457D01*
Y136547D01*
X71415D01*
Y136420D01*
X71372D01*
Y136335D01*
X71330D01*
Y136208D01*
X71288D01*
Y136124D01*
X71246D01*
Y136039D01*
X71204D01*
Y135913D01*
X71161D01*
Y135828D01*
X71119D01*
Y135744D01*
X71077D01*
Y135659D01*
X71034D01*
Y135575D01*
X70992D01*
Y135532D01*
X70950D01*
Y135448D01*
X70908D01*
Y135363D01*
X70865D01*
Y135321D01*
X70823D01*
Y135237D01*
X70781D01*
Y135152D01*
X70739D01*
Y135110D01*
X70696D01*
Y135025D01*
X70654D01*
Y134983D01*
X70612D01*
Y134941D01*
X70570D01*
Y134856D01*
X70527D01*
Y134814D01*
X70485D01*
Y134730D01*
X70443D01*
Y134687D01*
X70401D01*
Y134645D01*
X70358D01*
Y134603D01*
X70316D01*
Y134518D01*
X70274D01*
Y134476D01*
X70232D01*
Y134434D01*
X70189D01*
Y134391D01*
X70147D01*
Y134349D01*
X70105D01*
Y134307D01*
X70063D01*
Y134265D01*
X70020D01*
Y134222D01*
X69978D01*
Y134180D01*
X69936D01*
Y134138D01*
X69893D01*
Y134096D01*
X69851D01*
Y134053D01*
X69809D01*
Y134011D01*
X69767D01*
Y133969D01*
X69725D01*
Y133927D01*
X69682D01*
Y133884D01*
X69640D01*
Y133842D01*
X69598D01*
Y133800D01*
X69555D01*
Y133757D01*
X69513D01*
Y133715D01*
X69471D01*
Y133673D01*
X69386D01*
Y133631D01*
X69344D01*
Y133589D01*
X69302D01*
Y133546D01*
X69260D01*
Y133504D01*
X69175D01*
Y133462D01*
X69133D01*
Y133420D01*
X69091D01*
Y133377D01*
X69006D01*
Y133335D01*
X68964D01*
Y133293D01*
X68879D01*
Y133250D01*
X68837D01*
Y133208D01*
X68753D01*
Y133166D01*
X68710D01*
Y133124D01*
X68626D01*
Y133081D01*
X68541D01*
Y133039D01*
X68457D01*
Y132997D01*
X68414D01*
Y132955D01*
X68330D01*
Y132912D01*
X68246D01*
Y132870D01*
X68161D01*
Y132828D01*
X68076D01*
Y132786D01*
X67992D01*
Y132743D01*
X67865D01*
Y132701D01*
X67781D01*
Y132659D01*
X67696D01*
Y132617D01*
X67569D01*
Y132574D01*
X67443D01*
Y132532D01*
X67316D01*
Y132490D01*
X67189D01*
Y132448D01*
X67062D01*
Y132405D01*
X66893D01*
Y132363D01*
X66724D01*
Y132321D01*
X66513D01*
Y132279D01*
X66259D01*
Y132236D01*
X65921D01*
Y132194D01*
X64569D01*
Y132236D01*
X64273D01*
Y132279D01*
X64020D01*
Y132321D01*
X63808D01*
Y132363D01*
X63639D01*
Y132405D01*
X63470D01*
Y132448D01*
X63344D01*
Y132490D01*
X63217D01*
Y132532D01*
X63090D01*
Y132574D01*
X62963D01*
Y132617D01*
X62836D01*
Y132659D01*
X62752D01*
Y132701D01*
X62667D01*
Y132743D01*
X62541D01*
Y132786D01*
X62456D01*
Y132828D01*
X62372D01*
Y132870D01*
X62287D01*
Y132912D01*
X62203D01*
Y132955D01*
X62118D01*
Y132997D01*
X62076D01*
Y133039D01*
X61991D01*
Y133081D01*
X61907D01*
Y133124D01*
X61865D01*
Y133166D01*
X61780D01*
Y133208D01*
X61695D01*
Y133250D01*
X61653D01*
Y133293D01*
X61569D01*
Y133335D01*
X61527D01*
Y133377D01*
X61484D01*
Y133420D01*
X61400D01*
Y133462D01*
X61357D01*
Y133504D01*
X61273D01*
Y133546D01*
X61231D01*
Y133589D01*
X61188D01*
Y133631D01*
X61146D01*
Y133673D01*
X61104D01*
Y133715D01*
X61019D01*
Y133757D01*
X60977D01*
Y133800D01*
X60935D01*
Y133842D01*
X60893D01*
Y133884D01*
X60850D01*
Y133927D01*
X60808D01*
Y133969D01*
X60766D01*
Y134011D01*
X60724D01*
Y134053D01*
X60681D01*
Y134096D01*
X60639D01*
Y134138D01*
X60597D01*
Y134180D01*
X60554D01*
Y134222D01*
X60512D01*
Y134265D01*
X60470D01*
Y134307D01*
X60428D01*
Y134349D01*
X60386D01*
Y134391D01*
X60343D01*
Y134434D01*
X60301D01*
Y134518D01*
X60259D01*
Y134560D01*
X60216D01*
Y134603D01*
X60174D01*
Y134645D01*
X60132D01*
Y134730D01*
X60090D01*
Y134772D01*
X60048D01*
Y134814D01*
X60005D01*
Y134898D01*
X59963D01*
Y134941D01*
X59921D01*
Y135025D01*
X59878D01*
Y135067D01*
X59836D01*
Y135152D01*
X59794D01*
Y135237D01*
X59752D01*
Y135279D01*
X59709D01*
Y135363D01*
X59667D01*
Y135448D01*
X59625D01*
Y135532D01*
X59583D01*
Y135575D01*
X59540D01*
Y135659D01*
X59498D01*
Y135786D01*
X59456D01*
Y135870D01*
X59414D01*
Y135955D01*
X59371D01*
Y136039D01*
X59329D01*
Y136166D01*
X59287D01*
Y136251D01*
X59245D01*
Y136378D01*
X59202D01*
Y136504D01*
X59160D01*
Y136631D01*
X59118D01*
Y136800D01*
X59075D01*
Y136927D01*
X59033D01*
Y137138D01*
X58991D01*
Y137307D01*
X58949D01*
Y137561D01*
X58907D01*
Y137899D01*
X58864D01*
Y139420D01*
X58907D01*
Y139758D01*
X58949D01*
Y140012D01*
X58991D01*
Y140223D01*
X59033D01*
Y140392D01*
X59075D01*
Y140561D01*
X59118D01*
Y140730D01*
X59160D01*
Y140857D01*
X59202D01*
Y140984D01*
X59245D01*
Y141110D01*
X59287D01*
Y141237D01*
X59329D01*
Y141364D01*
X59371D01*
Y141448D01*
X59414D01*
Y141575D01*
X59456D01*
Y141660D01*
X59498D01*
Y141787D01*
X59540D01*
Y141871D01*
X59583D01*
Y141955D01*
X59625D01*
Y142040D01*
X59667D01*
Y142125D01*
X59709D01*
Y142209D01*
X59752D01*
Y142294D01*
X59794D01*
Y142378D01*
X59836D01*
Y142463D01*
X59878D01*
Y142547D01*
X59921D01*
Y142632D01*
X59963D01*
Y142674D01*
X60005D01*
Y142758D01*
X60048D01*
Y142801D01*
X60090D01*
Y142843D01*
X60174D01*
Y142885D01*
X60216D01*
Y142928D01*
X60301D01*
Y142970D01*
X60428D01*
Y143012D01*
X60639D01*
Y143054D01*
X64823D01*
Y143012D01*
X65034D01*
Y142970D01*
X65161D01*
Y142928D01*
X65245D01*
Y142885D01*
X65287D01*
Y142843D01*
X65330D01*
Y142801D01*
X65414D01*
Y142716D01*
X65456D01*
Y142674D01*
X65499D01*
Y142632D01*
X65541D01*
Y142547D01*
X65583D01*
Y142420D01*
X65626D01*
Y142251D01*
X65668D01*
Y138997D01*
X65626D01*
Y138786D01*
X65583D01*
Y138702D01*
X65541D01*
Y138617D01*
X65499D01*
Y138575D01*
X65456D01*
Y138490D01*
X65414D01*
Y138448D01*
X65372D01*
Y138406D01*
X65330D01*
Y138364D01*
X65245D01*
Y138321D01*
X65161D01*
Y138279D01*
X65076D01*
Y138237D01*
X64907D01*
Y138195D01*
X64654D01*
Y138237D01*
X64485D01*
Y138279D01*
X64400D01*
Y138321D01*
X64315D01*
Y138364D01*
X64273D01*
Y138406D01*
X64231D01*
Y138448D01*
X64189D01*
Y138490D01*
X64147D01*
Y138533D01*
X64104D01*
Y138575D01*
X64062D01*
Y138659D01*
X64020D01*
Y138744D01*
X63977D01*
Y138829D01*
X63935D01*
Y141279D01*
X63893D01*
Y141322D01*
X61188D01*
Y141237D01*
X61146D01*
Y141153D01*
X61104D01*
Y141068D01*
X61062D01*
Y140941D01*
X61019D01*
Y140857D01*
X60977D01*
Y140730D01*
X60935D01*
Y140646D01*
X60893D01*
Y140519D01*
X60850D01*
Y140392D01*
X60808D01*
Y140223D01*
X60766D01*
Y140054D01*
X60724D01*
Y139885D01*
X60681D01*
Y139674D01*
X60639D01*
Y139378D01*
X60597D01*
Y138829D01*
X60554D01*
Y138490D01*
X60597D01*
Y137941D01*
X60639D01*
Y137645D01*
X60681D01*
Y137434D01*
X60724D01*
Y137265D01*
X60766D01*
Y137138D01*
X60808D01*
Y137011D01*
X60850D01*
Y136885D01*
X60893D01*
Y136758D01*
X60935D01*
Y136673D01*
X60977D01*
Y136589D01*
X61019D01*
Y136504D01*
X61062D01*
Y136420D01*
X61104D01*
Y136335D01*
X61146D01*
Y136251D01*
X61188D01*
Y136166D01*
X61231D01*
Y136082D01*
X61273D01*
Y136039D01*
X61315D01*
Y135955D01*
X61357D01*
Y135913D01*
X61400D01*
Y135828D01*
X61442D01*
Y135786D01*
X61484D01*
Y135744D01*
X61527D01*
Y135659D01*
X61569D01*
Y135617D01*
X61611D01*
Y135575D01*
X61653D01*
Y135532D01*
X61695D01*
Y135490D01*
X61738D01*
Y135448D01*
X61780D01*
Y135363D01*
X61822D01*
Y135321D01*
X61865D01*
Y135279D01*
X61907D01*
Y135237D01*
X61949D01*
Y135194D01*
X61991D01*
Y135152D01*
X62034D01*
Y135110D01*
X62118D01*
Y135067D01*
X62160D01*
Y135025D01*
X62203D01*
Y134983D01*
X62245D01*
Y134941D01*
X62287D01*
Y134898D01*
X62372D01*
Y134856D01*
X62414D01*
Y134814D01*
X62456D01*
Y134772D01*
X62541D01*
Y134730D01*
X62583D01*
Y134687D01*
X62667D01*
Y134645D01*
X62710D01*
Y134603D01*
X62794D01*
Y134560D01*
X62879D01*
Y134518D01*
X62921D01*
Y134476D01*
X63006D01*
Y134434D01*
X63090D01*
Y134391D01*
X63174D01*
Y134349D01*
X63259D01*
Y134307D01*
X63386D01*
Y134265D01*
X63470D01*
Y134222D01*
X63555D01*
Y134180D01*
X63682D01*
Y134138D01*
X63808D01*
Y134096D01*
X63977D01*
Y134053D01*
X64147D01*
Y134011D01*
X64315D01*
Y133969D01*
X64611D01*
Y133927D01*
X65203D01*
Y133884D01*
X65330D01*
Y133927D01*
X65921D01*
Y133969D01*
X66175D01*
Y134011D01*
X66386D01*
Y134053D01*
X66555D01*
Y134096D01*
X66724D01*
Y134138D01*
X66851D01*
Y134180D01*
X66935D01*
Y134222D01*
X67062D01*
Y134265D01*
X67147D01*
Y134307D01*
X67273D01*
Y134349D01*
X67358D01*
Y134391D01*
X67443D01*
Y134434D01*
X67527D01*
Y134476D01*
X67612D01*
Y134518D01*
X67654D01*
Y134560D01*
X67738D01*
Y134603D01*
X67823D01*
Y134645D01*
X67865D01*
Y134687D01*
X67950D01*
Y134730D01*
X67992D01*
Y134772D01*
X68076D01*
Y134814D01*
X68119D01*
Y134856D01*
X68161D01*
Y134898D01*
X68246D01*
Y134941D01*
X68288D01*
Y134983D01*
X68330D01*
Y135025D01*
X68372D01*
Y135067D01*
X68457D01*
Y135110D01*
X68499D01*
Y135152D01*
X68541D01*
Y135194D01*
X68584D01*
Y135237D01*
X68626D01*
Y135279D01*
X68668D01*
Y135321D01*
X68710D01*
Y135363D01*
X68753D01*
Y135406D01*
X68795D01*
Y135448D01*
X68837D01*
Y135490D01*
X68879D01*
Y135532D01*
X68922D01*
Y135617D01*
X68964D01*
Y135659D01*
X69006D01*
Y135701D01*
X69048D01*
Y135744D01*
X69091D01*
Y135828D01*
X69133D01*
Y135870D01*
X69175D01*
Y135913D01*
X69217D01*
Y135997D01*
X69260D01*
Y136039D01*
X69302D01*
Y136124D01*
X69344D01*
Y136166D01*
X69386D01*
Y136251D01*
X69429D01*
Y136335D01*
X69471D01*
Y136420D01*
X69513D01*
Y136462D01*
X69555D01*
Y136547D01*
X69598D01*
Y136631D01*
X69640D01*
Y136716D01*
X69682D01*
Y136842D01*
X69725D01*
Y136927D01*
X69767D01*
Y137054D01*
X69809D01*
Y137138D01*
X69851D01*
Y137265D01*
X69893D01*
Y137434D01*
X69936D01*
Y137603D01*
X69978D01*
Y137814D01*
X70020D01*
Y138195D01*
X70063D01*
Y138913D01*
X70020D01*
Y139251D01*
X69978D01*
Y139505D01*
X69936D01*
Y139716D01*
X69893D01*
Y139885D01*
X69851D01*
Y140012D01*
X69809D01*
Y140138D01*
X69767D01*
Y140265D01*
X69725D01*
Y140392D01*
X69682D01*
Y140519D01*
X69640D01*
Y140603D01*
X69598D01*
Y140730D01*
X69555D01*
Y140815D01*
X69513D01*
Y140899D01*
X69471D01*
Y140984D01*
X69429D01*
Y141068D01*
X69386D01*
Y141153D01*
X69344D01*
Y141237D01*
X69302D01*
Y141322D01*
X69260D01*
Y141406D01*
X69217D01*
Y141491D01*
X69175D01*
Y141575D01*
X69133D01*
Y141660D01*
X69091D01*
Y141702D01*
X69048D01*
Y141787D01*
X69006D01*
Y141871D01*
X68964D01*
Y141913D01*
X68922D01*
Y141998D01*
X68879D01*
Y142082D01*
X68837D01*
Y142167D01*
X68795D01*
Y142251D01*
X68753D01*
Y142505D01*
X68710D01*
Y142547D01*
X68753D01*
Y142758D01*
X68795D01*
Y142885D01*
X68837D01*
Y142970D01*
X68879D01*
Y143012D01*
X68922D01*
Y143096D01*
X68964D01*
Y143139D01*
X69006D01*
Y143181D01*
X69091D01*
Y143223D01*
X69133D01*
Y143265D01*
X69217D01*
Y143308D01*
X69302D01*
Y143350D01*
X69471D01*
Y143392D01*
X69682D01*
Y143350D01*
D02*
G37*
%LPC*%
G36*
X65710Y161098D02*
X65118D01*
Y161056D01*
X64696D01*
Y161014D01*
X64442D01*
Y160971D01*
X64273D01*
Y160929D01*
X64104D01*
Y160887D01*
X63935D01*
Y160845D01*
X63808D01*
Y160802D01*
X63724D01*
Y160760D01*
X63597D01*
Y160718D01*
X63513D01*
Y160676D01*
X63386D01*
Y160633D01*
X63301D01*
Y160591D01*
X63217D01*
Y160549D01*
X63132D01*
Y160507D01*
X63090D01*
Y160464D01*
X63006D01*
Y160422D01*
X62921D01*
Y160380D01*
X62879D01*
Y160338D01*
X62794D01*
Y160295D01*
X62710D01*
Y160253D01*
X62667D01*
Y160211D01*
X62625D01*
Y160169D01*
X62541D01*
Y160126D01*
X62498D01*
Y160084D01*
X62456D01*
Y160042D01*
X62372D01*
Y160000D01*
X62329D01*
Y159957D01*
X62287D01*
Y159915D01*
X62245D01*
Y159873D01*
X62203D01*
Y159831D01*
X62160D01*
Y159788D01*
X62118D01*
Y159746D01*
X62034D01*
Y159704D01*
X61991D01*
Y159661D01*
X61949D01*
Y159619D01*
X61907D01*
Y159535D01*
X61865D01*
Y159493D01*
X61822D01*
Y159450D01*
X61780D01*
Y159408D01*
X61738D01*
Y159366D01*
X61695D01*
Y159324D01*
X61653D01*
Y159239D01*
X61611D01*
Y159197D01*
X61569D01*
Y159154D01*
X61527D01*
Y159070D01*
X61484D01*
Y159028D01*
X61442D01*
Y158985D01*
X61400D01*
Y158901D01*
X61357D01*
Y158859D01*
X61315D01*
Y158774D01*
X61273D01*
Y158690D01*
X61231D01*
Y158605D01*
X61188D01*
Y158563D01*
X61146D01*
Y158478D01*
X61104D01*
Y158394D01*
X61062D01*
Y158309D01*
X61019D01*
Y158225D01*
X60977D01*
Y158098D01*
X60935D01*
Y158013D01*
X60893D01*
Y157887D01*
X60850D01*
Y157760D01*
X60808D01*
Y157633D01*
X60766D01*
Y157464D01*
X60724D01*
Y157295D01*
X60681D01*
Y156999D01*
X60639D01*
Y155858D01*
X60681D01*
Y155605D01*
X60724D01*
Y155394D01*
X60766D01*
Y155225D01*
X60808D01*
Y155055D01*
X60850D01*
Y154929D01*
X60893D01*
Y154802D01*
X60935D01*
Y154675D01*
X60977D01*
Y154548D01*
X61019D01*
Y154464D01*
X61062D01*
Y154337D01*
X61104D01*
Y154253D01*
X61146D01*
Y154168D01*
X61188D01*
Y154041D01*
X61231D01*
Y153957D01*
X61273D01*
Y153872D01*
X61315D01*
Y153788D01*
X61357D01*
Y153703D01*
X61400D01*
Y153619D01*
X61442D01*
Y153534D01*
X61484D01*
Y153492D01*
X61527D01*
Y153407D01*
X61569D01*
Y153323D01*
X61611D01*
Y153238D01*
X61653D01*
Y153196D01*
X61695D01*
Y153112D01*
X61738D01*
Y153027D01*
X61780D01*
Y152985D01*
X61822D01*
Y152900D01*
X61865D01*
Y152816D01*
X61907D01*
Y152773D01*
X61949D01*
Y152689D01*
X61991D01*
Y152647D01*
X62034D01*
Y152562D01*
X62076D01*
Y152520D01*
X62118D01*
Y152435D01*
X62160D01*
Y152393D01*
X62203D01*
Y152351D01*
X62245D01*
Y152266D01*
X62287D01*
Y152224D01*
X62329D01*
Y152140D01*
X62372D01*
Y152097D01*
X62414D01*
Y152055D01*
X62456D01*
Y151971D01*
X62498D01*
Y151928D01*
X62541D01*
Y151886D01*
X62583D01*
Y151802D01*
X62625D01*
Y151759D01*
X62667D01*
Y151717D01*
X62710D01*
Y151632D01*
X62752D01*
Y151590D01*
X62794D01*
Y151548D01*
X62836D01*
Y151463D01*
X62879D01*
Y151421D01*
X62921D01*
Y151379D01*
X62963D01*
Y151337D01*
X63006D01*
Y151252D01*
X63048D01*
Y151210D01*
X63090D01*
Y151168D01*
X63132D01*
Y151126D01*
X63174D01*
Y151041D01*
X63217D01*
Y150999D01*
X63259D01*
Y150956D01*
X63301D01*
Y150914D01*
X63344D01*
Y150872D01*
X63386D01*
Y150787D01*
X63428D01*
Y150745D01*
X63470D01*
Y150703D01*
X63513D01*
Y150661D01*
X63555D01*
Y150618D01*
X63597D01*
Y150576D01*
X63639D01*
Y150492D01*
X63682D01*
Y150449D01*
X63724D01*
Y150407D01*
X63766D01*
Y150365D01*
X63808D01*
Y150323D01*
X63851D01*
Y150280D01*
X63893D01*
Y150238D01*
X63935D01*
Y150196D01*
X63977D01*
Y150154D01*
X64020D01*
Y150111D01*
X64062D01*
Y150069D01*
X64104D01*
Y150027D01*
X64147D01*
Y149985D01*
X64189D01*
Y149942D01*
X64231D01*
Y149900D01*
X64273D01*
Y149858D01*
X64315D01*
Y149815D01*
X64358D01*
Y149773D01*
X64400D01*
Y149731D01*
X64442D01*
Y149646D01*
X64485D01*
Y149604D01*
X64527D01*
Y149562D01*
X64569D01*
Y149520D01*
X64611D01*
Y149477D01*
X64654D01*
Y149435D01*
X64696D01*
Y149393D01*
X64738D01*
Y149351D01*
X64780D01*
Y149308D01*
X64823D01*
Y149266D01*
X64865D01*
Y149224D01*
X64907D01*
Y149182D01*
X64949D01*
Y149139D01*
X64992D01*
Y149097D01*
X65034D01*
Y149055D01*
X65076D01*
Y149013D01*
X65118D01*
Y148970D01*
X65161D01*
Y148928D01*
X65203D01*
Y148886D01*
X65245D01*
Y148844D01*
X65287D01*
Y148801D01*
X65330D01*
Y148759D01*
X65372D01*
Y148717D01*
X65414D01*
Y148759D01*
X65456D01*
Y148801D01*
X65499D01*
Y148844D01*
X65541D01*
Y148886D01*
X65583D01*
Y148928D01*
X65626D01*
Y148970D01*
X65668D01*
Y149013D01*
X65710D01*
Y149055D01*
X65752D01*
Y149097D01*
X65794D01*
Y149139D01*
X65837D01*
Y149182D01*
X65879D01*
Y149224D01*
X65921D01*
Y149266D01*
X65964D01*
Y149308D01*
X66006D01*
Y149351D01*
X66048D01*
Y149393D01*
X66090D01*
Y149435D01*
X66133D01*
Y149477D01*
X66175D01*
Y149520D01*
X66217D01*
Y149562D01*
X66259D01*
Y149604D01*
X66302D01*
Y149646D01*
X66344D01*
Y149689D01*
X66386D01*
Y149731D01*
X66428D01*
Y149773D01*
X66471D01*
Y149815D01*
X66513D01*
Y149858D01*
X66555D01*
Y149900D01*
X66597D01*
Y149942D01*
X66640D01*
Y149985D01*
X66682D01*
Y150027D01*
X66724D01*
Y150069D01*
X66766D01*
Y150154D01*
X66809D01*
Y150196D01*
X66851D01*
Y150238D01*
X66893D01*
Y150280D01*
X66935D01*
Y150323D01*
X66978D01*
Y150365D01*
X67020D01*
Y150407D01*
X67062D01*
Y150449D01*
X67105D01*
Y150492D01*
X67147D01*
Y150534D01*
X67189D01*
Y150576D01*
X67231D01*
Y150618D01*
X67273D01*
Y150661D01*
X67316D01*
Y150703D01*
X67358D01*
Y150745D01*
X67400D01*
Y150830D01*
X67443D01*
Y150872D01*
X67485D01*
Y150914D01*
X67527D01*
Y150956D01*
X67569D01*
Y150999D01*
X67612D01*
Y151041D01*
X67654D01*
Y151083D01*
X67696D01*
Y151126D01*
X67738D01*
Y151210D01*
X67781D01*
Y151252D01*
X67823D01*
Y151295D01*
X67865D01*
Y151337D01*
X67907D01*
Y151379D01*
X67950D01*
Y151421D01*
X67992D01*
Y151506D01*
X68034D01*
Y151548D01*
X68076D01*
Y151590D01*
X68119D01*
Y151632D01*
X68161D01*
Y151717D01*
X68203D01*
Y151759D01*
X68246D01*
Y151802D01*
X68288D01*
Y151844D01*
X68330D01*
Y151928D01*
X68372D01*
Y151971D01*
X68414D01*
Y152013D01*
X68457D01*
Y152097D01*
X68499D01*
Y152140D01*
X68541D01*
Y152182D01*
X68584D01*
Y152266D01*
X68626D01*
Y152309D01*
X68668D01*
Y152393D01*
X68710D01*
Y152435D01*
X68753D01*
Y152520D01*
X68795D01*
Y152562D01*
X68837D01*
Y152647D01*
X68879D01*
Y152689D01*
X68922D01*
Y152773D01*
X68964D01*
Y152816D01*
X69006D01*
Y152900D01*
X69048D01*
Y152985D01*
X69091D01*
Y153027D01*
X69133D01*
Y153112D01*
X69175D01*
Y153196D01*
X69217D01*
Y153238D01*
X69260D01*
Y153323D01*
X69302D01*
Y153407D01*
X69344D01*
Y153492D01*
X69386D01*
Y153576D01*
X69429D01*
Y153661D01*
X69471D01*
Y153745D01*
X69513D01*
Y153830D01*
X69555D01*
Y153957D01*
X69598D01*
Y154041D01*
X69640D01*
Y154126D01*
X69682D01*
Y154253D01*
X69725D01*
Y154379D01*
X69767D01*
Y154464D01*
X69809D01*
Y154633D01*
X69851D01*
Y154760D01*
X69893D01*
Y154929D01*
X69936D01*
Y155098D01*
X69978D01*
Y155309D01*
X70020D01*
Y155562D01*
X70063D01*
Y155985D01*
X70105D01*
Y156661D01*
X70063D01*
Y157126D01*
X70020D01*
Y157380D01*
X69978D01*
Y157549D01*
X69936D01*
Y157718D01*
X69893D01*
Y157887D01*
X69851D01*
Y158013D01*
X69809D01*
Y158140D01*
X69767D01*
Y158225D01*
X69725D01*
Y158309D01*
X69682D01*
Y158436D01*
X69640D01*
Y158521D01*
X69598D01*
Y158605D01*
X69555D01*
Y158690D01*
X69513D01*
Y158732D01*
X69471D01*
Y158816D01*
X69429D01*
Y158901D01*
X69386D01*
Y158943D01*
X69344D01*
Y159028D01*
X69302D01*
Y159070D01*
X69260D01*
Y159154D01*
X69217D01*
Y159197D01*
X69175D01*
Y159281D01*
X69133D01*
Y159324D01*
X69091D01*
Y159366D01*
X69048D01*
Y159408D01*
X69006D01*
Y159493D01*
X68964D01*
Y159535D01*
X68922D01*
Y159577D01*
X68879D01*
Y159619D01*
X68837D01*
Y159661D01*
X68795D01*
Y159704D01*
X68753D01*
Y159746D01*
X68710D01*
Y159788D01*
X68668D01*
Y159831D01*
X68626D01*
Y159873D01*
X68584D01*
Y159915D01*
X68541D01*
Y159957D01*
X68457D01*
Y160000D01*
X68414D01*
Y160042D01*
X68372D01*
Y160084D01*
X68330D01*
Y160126D01*
X68246D01*
Y160169D01*
X68203D01*
Y160211D01*
X68161D01*
Y160253D01*
X68076D01*
Y160295D01*
X68034D01*
Y160338D01*
X67950D01*
Y160380D01*
X67865D01*
Y160422D01*
X67823D01*
Y160464D01*
X67738D01*
Y160507D01*
X67654D01*
Y160549D01*
X67569D01*
Y160591D01*
X67485D01*
Y160633D01*
X67400D01*
Y160676D01*
X67316D01*
Y160718D01*
X67231D01*
Y160760D01*
X67105D01*
Y160802D01*
X66978D01*
Y160845D01*
X66851D01*
Y160887D01*
X66724D01*
Y160929D01*
X66555D01*
Y160971D01*
X66386D01*
Y161014D01*
X66133D01*
Y161056D01*
X65710D01*
Y161098D01*
D02*
G37*
%LPD*%
D12*
X104673Y146811D02*
Y164921D01*
X118846Y146811D02*
X104673D01*
X118846D02*
Y164921D01*
Y146811D02*
X104673D01*
X118846D02*
Y164921D01*
X104673D01*
Y146811D02*
Y163347D01*
X106248Y164921D01*
X118846D02*
X106248D01*
X96304Y154877D02*
X102302D01*
Y151878D01*
X101303Y150878D01*
X97304D01*
X96304Y151878D01*
Y154877D01*
X102302Y148879D02*
Y146879D01*
Y147879D01*
X96304D01*
X97304Y148879D01*
X26102Y146811D02*
Y164921D01*
X40276Y146811D02*
X26102D01*
X40276D02*
Y164921D01*
Y146811D02*
X26102D01*
X40276D02*
Y164921D01*
X26102D01*
Y146811D02*
Y163347D01*
X27677Y164921D01*
X40276D02*
X27677D01*
X17733Y154877D02*
X23731D01*
Y151878D01*
X22732Y150878D01*
X18733D01*
X17733Y151878D01*
Y154877D01*
X23731Y148879D02*
Y146879D01*
Y147879D01*
X17733D01*
X18733Y148879D01*
X170421Y21220D02*
Y39331D01*
X184595Y21220D02*
X170421D01*
X184595D02*
Y39331D01*
Y21220D02*
X170421D01*
X184595D02*
Y39331D01*
X170421D01*
Y21220D02*
Y37756D01*
X171996Y39331D01*
X184595D02*
X171996D01*
X162052Y29286D02*
X168050D01*
Y26287D01*
X167051Y25287D01*
X163052D01*
X162052Y26287D01*
Y29286D01*
X168050Y23288D02*
Y21289D01*
Y22288D01*
X162052D01*
X163052Y23288D01*
X170421Y68465D02*
Y86575D01*
X184595Y68465D02*
X170421D01*
X184595D02*
Y86575D01*
Y68465D02*
X170421D01*
X184595D02*
Y86575D01*
X170421D01*
Y68465D02*
Y85000D01*
X171996Y86575D01*
X184595D02*
X171996D01*
X162052Y76530D02*
X168050D01*
Y73531D01*
X167051Y72531D01*
X163052D01*
X162052Y73531D01*
Y76530D01*
X168050Y70532D02*
Y68533D01*
Y69533D01*
X162052D01*
X163052Y70532D01*
X170421Y115709D02*
Y133819D01*
X184595Y115709D02*
X170421D01*
X184595D02*
Y133819D01*
Y115709D02*
X170421D01*
X184595D02*
Y133819D01*
X170421D01*
Y115709D02*
Y132244D01*
X171996Y133819D01*
X184595D02*
X171996D01*
X162052Y123774D02*
X168050D01*
Y120775D01*
X167051Y119776D01*
X163052D01*
X162052Y120775D01*
Y123774D01*
X168050Y117776D02*
Y115777D01*
Y116777D01*
X162052D01*
X163052Y117776D01*
D26*
X39031Y30146D02*
X47921D01*
X39031Y6563D02*
X47807D01*
X31685Y10087D02*
Y26638D01*
X55268Y10087D02*
Y26638D01*
X44854Y39220D02*
Y46307D01*
X31468Y39220D02*
X44854D01*
X31468D02*
Y46307D01*
X44854D01*
Y39220D02*
Y46307D01*
X31468Y39220D02*
X44854D01*
X31468D02*
Y46307D01*
X44854D01*
X111866Y30146D02*
X120756D01*
X111866Y6563D02*
X120642D01*
X104520Y10087D02*
Y26638D01*
X128102Y10087D02*
Y26638D01*
X117689Y39220D02*
Y46307D01*
X104303Y39220D02*
X117689D01*
X104303D02*
Y46307D01*
X117689D01*
Y39220D02*
Y46307D01*
X104303Y39220D02*
X117689D01*
X104303D02*
Y46307D01*
X117689D01*
X39031Y92744D02*
X47921D01*
X39031Y69161D02*
X47807D01*
X31685Y72685D02*
Y89236D01*
X55268Y72685D02*
Y89236D01*
X44854Y101819D02*
Y108905D01*
X31468Y101819D02*
X44854D01*
X31468D02*
Y108905D01*
X44854D01*
Y101819D02*
Y108905D01*
X31468Y101819D02*
X44854D01*
X31468D02*
Y108905D01*
X44854D01*
X111866Y92744D02*
X120756D01*
X111866Y69161D02*
X120642D01*
X104520Y72685D02*
Y89236D01*
X128102Y72685D02*
Y89236D01*
X117689Y101819D02*
Y108905D01*
X104303Y101819D02*
X117689D01*
X104303D02*
Y108905D01*
X117689D01*
Y101819D02*
Y108905D01*
X104303Y101819D02*
X117689D01*
X104303D02*
Y108905D01*
X117689D01*
D28*
X32059Y42567D02*
D03*
D03*
X104894D02*
D03*
D03*
X32059Y105165D02*
D03*
D03*
X104894D02*
D03*
D03*
D42*
X35110Y36268D02*
G03*
X35110Y36268I-492J0D01*
G01*
X107945D02*
G03*
X107945Y36268I-492J0D01*
G01*
X35110Y98866D02*
G03*
X35110Y98866I-492J0D01*
G01*
X107945D02*
G03*
X107945Y98866I-492J0D01*
G01*
D43*
X64735Y8118D02*
Y9955D01*
Y9036D01*
X61980D01*
Y10873D02*
X63817D01*
X64735Y11791D01*
X63817Y12710D01*
X61980D01*
X63358D01*
Y10873D01*
X64276Y15465D02*
X64735Y15006D01*
Y14087D01*
X64276Y13628D01*
X62440D01*
X61980Y14087D01*
Y15006D01*
X62440Y15465D01*
X64735Y16383D02*
Y18220D01*
Y17301D01*
X61980D01*
X63817Y20323D02*
X61980Y21241D01*
X63817Y22160D01*
X61980Y24915D02*
Y23078D01*
X63817Y24915D01*
X64276D01*
X64735Y24455D01*
Y23537D01*
X64276Y23078D01*
X61980Y25833D02*
X62440D01*
Y26292D01*
X61980D01*
Y25833D01*
X64276Y28129D02*
X64735Y28588D01*
Y29506D01*
X64276Y29965D01*
X62440D01*
X61980Y29506D01*
Y28588D01*
X62440Y28129D01*
X64276D01*
X137570Y8118D02*
Y9955D01*
Y9036D01*
X134815D01*
Y10873D02*
X136652D01*
X137570Y11791D01*
X136652Y12710D01*
X134815D01*
X136193D01*
Y10873D01*
X137111Y15465D02*
X137570Y15006D01*
Y14087D01*
X137111Y13628D01*
X135274D01*
X134815Y14087D01*
Y15006D01*
X135274Y15465D01*
X137570Y16383D02*
Y18220D01*
Y17301D01*
X134815D01*
X136652Y20323D02*
X134815Y21241D01*
X136652Y22160D01*
X134815Y24915D02*
Y23078D01*
X136652Y24915D01*
X137111D01*
X137570Y24455D01*
Y23537D01*
X137111Y23078D01*
X134815Y25833D02*
X135274D01*
Y26292D01*
X134815D01*
Y25833D01*
X137111Y28129D02*
X137570Y28588D01*
Y29506D01*
X137111Y29965D01*
X135274D01*
X134815Y29506D01*
Y28588D01*
X135274Y28129D01*
X137111D01*
X64735Y70717D02*
Y72553D01*
Y71635D01*
X61980D01*
Y73471D02*
X63817D01*
X64735Y74390D01*
X63817Y75308D01*
X61980D01*
X63358D01*
Y73471D01*
X64276Y78063D02*
X64735Y77604D01*
Y76686D01*
X64276Y76227D01*
X62440D01*
X61980Y76686D01*
Y77604D01*
X62440Y78063D01*
X64735Y78982D02*
Y80818D01*
Y79900D01*
X61980D01*
X63817Y82921D02*
X61980Y83840D01*
X63817Y84758D01*
X61980Y87513D02*
Y85676D01*
X63817Y87513D01*
X64276D01*
X64735Y87054D01*
Y86135D01*
X64276Y85676D01*
X61980Y88431D02*
X62440D01*
Y88890D01*
X61980D01*
Y88431D01*
X64276Y90727D02*
X64735Y91186D01*
Y92105D01*
X64276Y92564D01*
X62440D01*
X61980Y92105D01*
Y91186D01*
X62440Y90727D01*
X64276D01*
X137570Y70717D02*
Y72553D01*
Y71635D01*
X134815D01*
Y73471D02*
X136652D01*
X137570Y74390D01*
X136652Y75308D01*
X134815D01*
X136193D01*
Y73471D01*
X137111Y78063D02*
X137570Y77604D01*
Y76686D01*
X137111Y76227D01*
X135274D01*
X134815Y76686D01*
Y77604D01*
X135274Y78063D01*
X137570Y78982D02*
Y80818D01*
Y79900D01*
X134815D01*
X136652Y82921D02*
X134815Y83840D01*
X136652Y84758D01*
X134815Y87513D02*
Y85676D01*
X136652Y87513D01*
X137111D01*
X137570Y87054D01*
Y86135D01*
X137111Y85676D01*
X134815Y88431D02*
X135274D01*
Y88890D01*
X134815D01*
Y88431D01*
X137111Y90727D02*
X137570Y91186D01*
Y92105D01*
X137111Y92564D01*
X135274D01*
X134815Y92105D01*
Y91186D01*
X135274Y90727D01*
X137111D01*
M02*
