M48
;Layer_Color=9474304
;FILE_FORMAT=2:5
INCH,LZ
;TYPE=PLATED
T1F00S00C0.01181
T2F00S00C0.03898
T3F00S00C0.03937
;TYPE=NON_PLATED
T4F00S00C0.01968
T5F00S00C0.11811
%
T01
X0038752Y002426
X0111587
X0164051Y0030787
X0174051Y0039787
X0181051Y0028287
Y0075532
X0174051Y0087032
X0164051Y0078031
Y0125276
X0174051Y0134276
X0181051Y0122776
X0115303Y0153878
X0108303Y0165378
X0098303Y0156378
X0111587Y0086858
X0038752
X0036732Y0153878
X0029732Y0165378
X0019732Y0156378
T02
X0034618Y0005559
X0052335
Y003115
X0034618
X0107453
X0125169
Y0005559
X0107453
Y0068158
X0125169
Y0093748
X0107453
X0052335
X0034618
Y0068158
X0052335
T03
X0013555Y0026728
Y0034602
Y0042476
Y005035
X008639
Y0042476
Y0034602
Y0026728
X0156051Y0013287
X0163925
X0171799
X0179673
Y0060532
X0171799
X0163925
X0156051
Y0107776
X0163925
X0171799
X0179673
X008639Y0105075
Y0112949
Y0097201
Y0089327
X0090303Y0138878
X0098177
X0106051
X0113925
X0035354
X002748
X0019606
X0011732
X0013555Y0112949
Y0105075
Y0097201
Y0089327
T04
X0069488Y0017717
X0072244
Y0021654
X0069488
Y0025591
X0072244
Y0029528
X0069488
Y0033465
X0072244
X0141929
X0144685
Y0029528
X0141929
Y0025591
X0144685
Y0021654
X0141929
Y0017717
X0144685
X0162401Y0043504
Y004626
X0166339
Y0043504
X0170275
Y004626
X0174213
Y0043504
X0178149
Y004626
X0178149Y0090748
Y0093504
X0174213
Y0090748
X0170275
Y0093504
X0166339
Y0090748
X0162401
Y0093504
X0144685Y0092692
X0141929
Y0096629
X0144685
Y0088755
X0141929
Y0084818
X0144685
Y0080881
X0141929
X0113189Y0062598
Y0059842
X0109252
Y0062598
X0105315
Y0059842
X0101378
Y0062598
X0097441
Y0059842
X0072244Y0080881
X0069488
Y0084818
X0072244
Y0088755
X0069488
Y0092692
X0072244
Y0096629
X0069488
X0075591Y0139961
X0078347
Y0143898
X0075591
Y0147835
X0078347
Y0151772
X0075591
Y0155709
X0078347
X0097441Y0125763
Y0123007
X0101378
Y0125763
X0105315
Y0123007
X0109252
Y0125763
X0113189
Y0123007
X0127165Y0140354
X0129921
Y0144291
X0127165
Y0148228
X0129921
Y0152165
X0127165
Y0156102
X0129921
X0162401Y0140945
Y0138189
X0166339
Y0140945
X0170275
Y0138189
X0174213
Y0140945
X0178149
Y0138189
X0050984Y0139961
X0048228
Y0143898
X0050984
Y0147835
X0048228
Y0151772
X0050984
Y0155709
X0048228
X0040748Y0125763
Y0123007
X0036811
Y0125763
X0032874
Y0123007
X0028937
Y0125763
X0025
Y0123007
Y0062598
Y0059842
X0028937
Y0062598
X0032874
Y0059842
X0036811
Y0062598
X0040748
Y0059842
T05
X0014343Y0008118
X0087177
X0059618Y0044339
X0132453
X0154551Y0031787
Y0079031
Y0126276
X0132453Y0106937
X0059618
X0087177Y0070717
X0088803Y0157378
X0010232
X0014343Y0070717
M30
