M48
;Layer_Color=9474304
;FILE_FORMAT=2:5
INCH,LZ
;TYPE=PLATED
T1F00S00C0.01181
T2F00S00C0.03898
T3F00S00C0.03937
;TYPE=NON_PLATED
T4F00S00C0.01968
T5F00S00C0.11811
%
T01
X0038752Y002426
X0111587
X0184421
X0257256
X0255067Y0090492
X0248067Y0101992
X0238067Y0092992
X0185945Y0090492
X0178945Y0101992
X0168945Y0092992
X0116823Y0090492
X0109823Y0101992
X0099823Y0092992
X0047701Y0090492
X0040701Y0101992
X0030701Y0092992
T02
X0034618Y0005559
X0052335
Y003115
X0034618
X0107453
X0125169
Y0005559
X0107453
X0180287
X0198004
Y003115
X0180287
X0253122
X0270839
Y0005559
X0253122
T03
X0013555Y0026728
Y0034602
Y0042476
Y005035
X008639
Y0042476
Y0034602
Y0026728
X0159224
Y0034602
Y0042476
Y005035
X0232059
Y0042476
Y0034602
Y0026728
X0230067Y0075492
X0237941
X0245815
X0253689
X0184567
X0176693
X0168819
X0160945
X0115445
X0107571
X0099697
X0091823
X0046323
X0038449
X0030575
X0022701
T04
X0069488Y0017717
X0072244
Y0021654
X0069488
Y0025591
X0072244
Y0029528
X0069488
Y0033465
X0072244
X0141929
X0144685
Y0029528
X0141929
Y0025591
X0144685
Y0021654
X0141929
Y0017717
X0144685
X021437
X0217126
Y0021654
X021437
Y0025591
X0217126
Y0029528
X021437
Y0033465
X0217126
X0215748Y0075787
X0218504
Y0079724
X0215748
Y0083661
X0218504
Y0087598
X0215748
Y0091535
X0218504
X0242717Y0062598
Y0059842
X0246654
Y0062598
X0250591
Y0059842
X0254528
Y0062598
X0258465
Y0059842
X018563
Y0062598
X0181693
Y0059842
X0177756
Y0062598
X0173819
Y0059842
X0169882
Y0062598
X015Y0075787
X0147244
Y0079724
X015
Y0083661
X0147244
Y0087598
X015
Y0091535
X0147244
X0131102Y0091929
X0128347
Y0087992
X0131102
Y0084055
X0128347
Y0080118
X0131102
Y0076181
X0128347
X0113189Y0062598
Y0059842
X0109252
Y0062598
X0105315
Y0059842
X0101378
Y0062598
X0097441
Y0059842
X0080709Y0075787
X0077953
Y0079724
X0080709
Y0083661
X0077953
Y0087598
X0080709
Y0091535
X0077953
X0061811
X0059055
Y0087598
X0061811
Y0083661
X0059055
Y0079724
X0061811
Y0075787
X0059055
X0197244Y0076181
X02
Y0080118
X0197244
Y0084055
X02
Y0087992
X0197244
Y0091929
X02
X0040748Y0062598
Y0059842
X0036811
Y0062598
X0032874
Y0059842
X0028937
Y0062598
X0025
Y0059842
T05
X0014343Y0008118
X0087177
X0059618Y0044339
X0132453
X0160012Y0008118
X0205287Y0044339
X0232846Y0008118
X0278122Y0044339
X0228567Y0093992
X0159445
X0090323
X0021201
M30
